<svg id="Capa_1" enable-background="new 0 0 511.999 511.999" height="512" viewBox="0 0 511.999 511.999" width="512" xmlns="http://www.w3.org/2000/svg"><g><path d="m373.104 411.823c3.461-2.906 5.345-7.141 5.346-11.489h.01v-191.41c50.816-7.301 90-51.119 90-103.924 0-57.897-47.103-105-105-105-36.679 0-69.02 18.909-87.803 47.487h-187.118c-24.813 0-45 20.187-45 45v337.848c0 24.813 20.187 45 45 45h77.461v21.664c0 4.822 2.318 9.35 6.23 12.169 3.912 2.82 8.941 3.587 13.514 2.061l25.255-8.419 25.255 8.419c1.549.516 3.15.77 4.743.77 3.109 0 6.185-.967 8.771-2.831 3.912-2.819 6.23-7.347 6.23-12.169v-21.664h107.462c6.305 0 11.972-3.914 14.129-9.839s.413-12.537-4.417-16.591c-2.779-2.393-10.712-10.94-10.712-18.569 0-7.631 7.933-16.178 10.644-18.513zm-207.104 33.512h-77.461c-8.271 0-15-6.729-15-15s6.729-15 15-15h77.461zm59.998 30.851-10.255-3.419c-3.079-1.026-6.408-1.026-9.487 0l-10.256 3.419v-60.852h29.998zm109.164-30.851h-79.164v-30h79.164c-1.646 4.586-2.702 9.623-2.702 15s1.056 10.414 2.702 15zm13.298-60h-259.921c-5.258 0-10.305.915-15 2.58v-295.428c0-8.271 6.729-15 15-15h173.586c-2.385 8.773-3.665 17.995-3.665 27.513 0 52.805 39.184 96.623 90 103.924zm-60-280.335c0-41.355 33.645-75 75-75s75 33.645 75 75-33.645 75-75 75-75-33.645-75-75z"/><path d="m103.539 242.499v60.004c0 8.284 6.716 15 15 15h184.921c3.978 0 7.793-1.58 10.607-4.393 2.813-2.813 4.393-6.628 4.393-10.607v-60.004c0-8.284-6.716-15-15-15h-184.921c-8.284 0-15 6.716-15 15zm30 15h154.921v30.004h-154.921z"/><path d="m118.539 197.495h77.46c8.284 0 15-6.716 15-15s-6.716-15-15-15h-77.46c-8.284 0-15 6.716-15 15s6.716 15 15 15z"/><path d="m118.539 137.49h77.46c8.284 0 15-6.716 15-15s-6.716-15-15-15h-77.46c-8.284 0-15 6.716-15 15s6.716 15 15 15z"/><path d="m393.46 89.999h-15v-14.999c0-8.284-6.716-15-15-15s-15 6.716-15 15v14.999h-15c-8.284 0-15 6.716-15 15s6.716 15 15 15h15v15.001c0 8.284 6.716 15 15 15s15-6.716 15-15v-15.001h15c8.284 0 15-6.716 15-15s-6.716-15-15-15z"/></g></svg>