<svg id="Capa_1" enable-background="new 0 0 511.999 511.999" height="512" viewBox="0 0 511.999 511.999" width="512" xmlns="http://www.w3.org/2000/svg"><g><path d="m500.5 376.995c7.144-7.968 11.499-18.486 11.499-30.004 0-24.813-20.187-45-45-45h-123.419c-8.284 0-15 6.716-15 15v38.634l-81.368-25.412v-41.899c19.716-18.28 32.08-44.383 32.08-73.312v-67.495c0-54.989-44.738-99.847-99.755-99.998h-.334c-8.563.007-16.876 1.098-24.812 3.141-.981-28.094-24.126-50.65-52.453-50.65-28.949 0-52.5 23.551-52.5 52.5 0 24.668 17.106 45.405 40.076 51.002-6.542 13.288-10.225 28.225-10.225 44.004v67.495c0 28.854 12.363 54.915 32.08 73.195v42.016l-72.524 22.693c-.156.049-.312.1-.466.154-21.521 7.515-38.379 31.258-38.379 54.053v89.887c0 8.284 6.716 15 15 15h451.879.12c24.813 0 45-20.187 45-45 0-11.517-4.353-22.032-11.495-30 7.142-7.968 11.495-18.483 11.495-30 0-11.519-4.355-22.036-11.499-30.004zm-321.298-299.487h.28c38.493.105 69.81 31.506 69.81 69.998v12.699c-31.863-9.574-57.46-45.823-57.742-46.228-2.797-4.042-7.403-6.447-12.318-6.455-.008 0-.016 0-.024 0-4.906 0-9.509 2.409-12.314 6.435-.293.421-25.812 36.559-57.606 46.202v-12.654c0-38.563 31.375-69.964 69.914-69.997zm-77.264-2.508c-12.407 0-22.5-10.093-22.5-22.5s10.093-22.5 22.5-22.5 22.5 10.094 22.5 22.5-10.093 22.5-22.5 22.5zm7.35 140.001v-24.007c30.589-6.034 55.78-28.973 69.927-44.687 14.17 15.739 39.42 38.728 70.077 44.717v23.977c0 38.553-31.357 69.95-69.906 69.998-38.656-.121-70.098-31.516-70.098-69.998zm107.924 92.52v25.747l-37.922 25.621-37.922-25.621v-25.838c11.714 4.839 24.534 7.533 37.967 7.57h.055c13.38-.013 26.15-2.676 37.822-7.479zm-187.212 174.478v-74.887c0-10.058 8.589-22.223 18.072-25.659l11.931-3.733v71.613c0 11.961 3.373 23.148 9.211 32.667h-39.214zm238.577-32.667c0 18.012-14.654 32.667-32.667 32.667h-113.24c-18.012 0-32.667-14.654-32.667-32.667v-81.001l33.952-10.624 46.938 31.712c2.537 1.714 5.467 2.571 8.397 2.571s5.86-.857 8.397-2.571l46.938-31.712 33.952 10.624zm60.003 32.667h-39.214c5.839-9.519 9.211-20.705 9.211-32.667v-71.613l11.931 3.733c9.483 3.436 18.072 15.602 18.072 25.659zm138.494 0c-.032 0-.064 0-.095 0h-108.399v-30h108.418c8.271 0 15 6.729 15 15 .001 8.246-6.688 14.959-14.924 15zm0-60c-.032 0-.064 0-.095 0-.003 0-.006 0-.01 0h-108.389v-14.888-15.112h108.418c8.271 0 15 6.729 15 15 .001 8.246-6.688 14.959-14.924 15zm0-60.009c-.032 0-.064 0-.095 0-.062 0-.122.009-.184.009h-108.215v-30.009h108.418c8.271 0 15 6.729 15 15 .001 8.246-6.688 14.959-14.924 15z"/><circle cx="179.22" cy="436.999" r="15"/></g></svg>