<svg id="Capa_1" enable-background="new 0 0 512 512" height="512" viewBox="0 0 512 512" width="512" xmlns="http://www.w3.org/2000/svg"><g><path d="m436.996 60.004h-54.774l-25.609-25.609c-2.814-2.813-6.628-4.393-10.606-4.393h-45.007v-15.002c0-8.284-6.716-15-15-15h-60c-8.284 0-15 6.716-15 15v15.002h-45.003c-3.979 0-7.794 1.58-10.607 4.394l-25.607 25.609h-54.779c-8.284 0-15 6.716-15 15v421.995c0 8.284 6.716 15 15 15h361.992c8.284 0 15-6.716 15-15v-421.996c0-8.284-6.716-15-15-15zm-195.996-30.004h30v59.998h-30zm180.996 452h-331.992v-391.996h45.992c3.978 0 7.793-1.58 10.607-4.394l25.608-25.609h38.789v29.996h-15.003c-8.284 0-15 6.716-15 15s6.716 15 15 15h120.006c8.284 0 15-6.716 15-15s-6.716-15-15-15h-15.003v-29.995h38.793l25.609 25.609c2.813 2.813 6.628 4.393 10.606 4.393h45.987v391.996z"/><path d="m298.896 251.896c10.571-10.822 17.104-25.606 17.104-41.894 0-33.084-26.916-60-60-60s-60 26.916-60 60c0 16.288 6.533 31.072 17.105 41.894-28.036 15.264-47.105 44.999-47.105 79.104v104.165c0 8.284 6.716 15 15 15h150c8.284 0 15-6.716 15-15v-104.165c0-34.105-19.068-63.84-47.104-79.104zm-42.896-71.894c16.542 0 30 13.458 30 30s-13.458 30-30 30-30-13.458-30-30 13.458-30 30-30zm-15 240.163h-45v-74.165h30c8.271 0 15 6.729 15 15zm-15-104.165h-28.102c6.678-25.849 30.195-45 58.102-45 27.906 0 51.424 19.151 58.102 45h-28.102c-11.517 0-22.033 4.353-30 11.495-7.968-7.142-18.483-11.495-30-11.495zm90 104.165h-45v-59.165c0-8.271 6.728-15 15-15h30z"/></g></svg>