<svg id="Capa_1" enable-background="new 0 0 512.999 512.999" height="512" viewBox="0 0 512.999 512.999" width="512" xmlns="http://www.w3.org/2000/svg"><g><path d="m237.125 245.355 4.393-4.393v38.288c0 8.284 6.716 15 15 15s15-6.716 15-15v-38.288l4.393 4.393c2.93 2.929 6.768 4.394 10.607 4.394s7.678-1.465 10.606-4.393c5.857-5.858 5.858-15.355.001-21.213l-30-30.002c-2.813-2.813-6.629-4.394-10.607-4.394-3.979 0-7.794 1.58-10.607 4.394l-30 30.002c-5.857 5.858-5.856 15.355.001 21.213 5.858 5.858 15.353 5.857 21.213-.001z"/><path d="m453.987 274.788-55.007-55.005-.004-136.706c0-8.284-6.716-14.999-15-14.999h-200.875l-6.176-54.758c-.855-7.587-7.271-13.32-14.905-13.32h-103.009c-8.284 0-15 6.716-15 15v186.997c0 12.292 6.309 27.522 15.001 36.213l55.047 55.045v107.666c0 24.813 20.186 45 45 45h170.952l6.063 53.758c.855 7.586 7.271 13.319 14.905 13.319h103.01c8.284 0 15-6.716 15-15v-186.997c-.001-12.292-6.31-27.522-15.002-36.213zm-330.71-146.72c-5.606 2.322-9.26 7.791-9.26 13.858l.001 108.863-33.794-33.793c-3.02-3.019-6.214-10.729-6.214-14.999v-171.997h74.606l5.499 48.758c.239 2.128.933 4.181 2.032 6.019.159.266 16.018 26.783 27.059 45.381 2.291 3.858 9.157 17.054 1.34 24.872-2.834 2.834-6.601 4.394-10.607 4.394s-7.773-1.56-10.606-4.393l-23.71-23.71c-4.29-4.291-10.742-5.573-16.346-3.253zm50.663 61.355c12.02 0 23.32-4.681 31.821-13.181 15.363-15.365 16.605-38.892 3.243-61.4-3.099-5.218-6.573-11.056-9.976-16.764h169.947l.005 236.886c-8.249-7.362-18.777-11.388-29.923-11.388-12.019 0-23.32 4.681-31.821 13.181-5.485 5.486-9.16 12.016-11.023 19.165h-137.155c-5.259 0-10.305.915-15 2.58l-.041-180.466c8.249 7.361 18.778 11.387 29.923 11.387zm-14.882 226.498c-8.271 0-15-6.729-15-15s6.729-15 15-15h139.131c1.463 4.076 3.393 8.172 5.805 12.236 3.279 5.523 6.981 11.741 10.572 17.764zm279.93 67.078h-74.606l-5.499-48.758c-.24-2.128-.933-4.18-2.032-6.018-.159-.266-16.018-26.782-27.06-45.381-2.291-3.858-9.157-17.054-1.34-24.872 2.834-2.833 6.601-4.394 10.607-4.394s7.774 1.56 10.607 4.393l23.71 23.71c4.292 4.291 10.744 5.572 16.347 3.251 5.605-2.322 9.26-7.791 9.26-13.858l-.001-108.863 33.794 33.793c3.02 3.019 6.214 10.729 6.214 14.999v171.998z"/></g></svg>