<svg id="Capa_1" enable-background="new 0 0 511.999 511.999" height="512" viewBox="0 0 511.999 511.999" width="512" xmlns="http://www.w3.org/2000/svg"><g><path d="m496.998 481.999h-5.003v-39.999c0-8.284-6.716-15-15-15-15.882 0-29.517-1.006-41.707-2.624v-63.439c0-21.573-15.103-43.986-34.963-52.698l-.003-163.914c.001-79.581-64.744-144.325-144.325-144.325s-144.325 64.744-144.325 144.325v163.915c-19.862 8.712-34.964 31.125-34.964 52.697v63.439c-12.191 1.618-25.825 2.624-41.707 2.624-8.285 0-15 6.716-15 15v39.999h-5.001c-8.284 0-15 6.716-15 15s6.716 15 15 15h481.998c8.284 0 15-6.716 15-15s-6.715-15-15-15zm-35.003 0h-190.996v-5.002c0-.006 0-.013 0-.019.01-24.804 20.191-44.981 44.999-44.981 21.802 0 39.183 4.667 59.309 10.071 23.121 6.209 48.975 13.152 86.689 14.641v25.29zm-243.919-76.682-.012-53.891c10.845 7.329 23.909 11.612 37.955 11.612 14.024 0 27.069-4.277 37.902-11.595v53.874c-15.297 4.721-28.52 14.212-37.922 26.731-9.403-12.519-22.627-22.01-37.923-26.731zm-.025-110.376-.006-27.88c11.399 5.764 24.263 9.037 37.88 9.049h.025c13.638-.012 26.519-3.295 37.93-9.075l.041 28.047v.75c-.413 20.585-17.25 37.206-37.902 37.206-20.932 0-37.961-17.029-37.961-37.961 0-.046-.006-.09-.007-.136zm92.272-103.274c0 29.991-24.395 54.411-54.385 54.443-29.991-.031-54.385-24.452-54.385-54.443v-35.839c9.353-4.675 22.854-13.559 33.132-29.102 23.791 20.678 57.063 29.017 75.638 32.219zm94.965 227.131c-7.696-1.809-14.984-3.765-22.201-5.703-19.021-5.108-37.112-9.949-59.166-10.913v-86.71l63.295 19.805c9.484 3.437 18.072 15.602 18.072 25.659zm-149.291-388.798c63.039 0 114.325 51.286 114.325 114.325l.003 154.233-46.42-14.525-.061-42.332c10.346-14.016 16.477-31.322 16.477-50.033v-45.831c0-7.819-6.028-14.329-13.823-14.954-.619-.05-62.12-5.353-82.807-39.172-3.093-5.058-8.88-7.82-14.756-7.044-5.879.775-10.749 4.94-12.427 10.627-8.162 27.665-32.281 35.567-34.054 36.113-6.572 1.743-10.903 7.626-10.903 14.431v45.831c0 18.717 6.136 36.03 16.489 50.048l.027 42.324-46.397 14.518v-154.234c.002-63.039 51.288-114.325 114.327-114.325zm-149.289 330.937c0-10.057 8.589-22.222 18.073-25.66l63.296-19.805v86.71c-22.055.963-40.145 5.805-59.168 10.913-7.217 1.938-14.505 3.894-22.201 5.703zm-56.707 95.772c37.714-1.489 63.567-8.432 86.688-14.641 20.126-5.404 37.507-10.072 59.31-10.072 24.807 0 44.989 20.177 45 44.981 0 .007-.001.013-.001.019v5.002h-190.997z"/></g></svg>