<svg id="Capa_1" enable-background="new 0 0 511.998 511.998" height="512" viewBox="0 0 511.998 511.998" width="512" xmlns="http://www.w3.org/2000/svg"><g><path d="m496.998 210.837c8.284 0 15-6.716 15-15v-60.003c0-6.504-4.191-12.267-10.379-14.27l-155.62-50.39v-36.174c0-8.284-6.716-15-15-15h-45c-11.517 0-22.032 4.354-30 11.495-7.968-7.142-18.483-11.495-30-11.495h-45c-8.284 0-15 6.716-15 15v36.173l-155.618 50.39c-6.188 2.003-10.379 7.767-10.379 14.27v60.003c0 8.284 6.716 15 15 15h25v191.16h-25.002c-8.284 0-15 6.716-15 15v60c0 8.284 6.716 15 15 15h481.998c8.284 0 15-6.716 15-15v-60c0-8.284-6.716-15-15-15h-25.002v-191.16h25.002zm-225.999-145.836c0-8.271 6.729-15 15-15h30v31.866.126 38.842h-45zm-75-15.001h30c8.271 0 15 6.729 15 15v55.834h-45zm285.999 381.997v30h-451.998v-30zm-411.996-30v-191.16h30v191.16zm125.004-131.161h121.986c8.284 0 15-6.716 15-15v-44.999h50.004v131.157h-83.577c-6.192-17.458-22.865-30-42.42-30s-36.227 12.542-42.42 30h-83.577v-131.157h50.004v44.999c0 8.285 6.716 15 15 15zm15-30v-29.999h91.986v29.999zm171.99 131.159v30.003h-80.997v-30.003zm-110.997-15v45.003h-30v-45.003c0-8.271 6.729-15 15-15s15 6.729 15 15zm-60 15v30.003h-80.997v-30.003zm200.997 30.002v-191.16h30v191.16zm-381.995-221.16-.001-34.093 135.998-44.037v33.127c0 8.284 6.716 15 15 15h150c8.284 0 15-6.716 15-15v-33.127l135.999 44.037v34.093z"/></g></svg>