<svg id="Capa_1" enable-background="new 0 0 512 512" height="512" viewBox="0 0 512 512" width="512" xmlns="http://www.w3.org/2000/svg"><g><path d="m497 69.493h-196c-14.579 0-27.957 5.231-38.365 13.91-6.754-17.707-17.476-33.675-31.739-46.877-25.109-23.238-58.989-36.035-95.396-36.035-8.284 0-15 6.716-15 15v54.003h-105.5c-8.284 0-15 6.716-15 15v412.016c0 8.284 6.716 15 15 15h482c8.284 0 15-6.716 15-15v-412.017c0-8.284-6.716-15-15-15zm-467 30h90.5v40h-35.499c-8.284 0-15 6.716-15 15s6.716 15 15 15h35.499v30.003h-35.499c-8.284 0-15 6.716-15 15s6.716 15 15 15h35.499v30.003h-35.499c-8.284 0-15 6.716-15 15s6.716 15 15 15h35.499v30.003h-35.499c-8.284 0-15 6.716-15 15s6.716 15 15 15h50.499c.005 0 .011-.001.016-.001 36.71.005 67.907 15.867 86.644 41.061-3.619-.684-7.345-1.057-11.159-1.057h-181.001zm211 382.016h-211v-62.004h181c16.542 0 30 13.458 30 30zm0-115.463c-3.142-3.666-6.506-7.178-10.105-10.508-21.623-20.012-49.751-32.281-80.395-35.303v-288.839c52.528 6.432 90.5 46.456 90.5 98.098zm241 115.463h-211v-32.004c0-16.542 13.458-30 30-30h181zm0-92.004h-181c-10.925 0-21.168 2.949-30 8.072v-268.084c0-16.542 13.458-30 30-30h181z"/><path d="m326.001 169.493h100.998c8.284 0 15-6.716 15-15s-6.716-15-15-15h-100.998c-8.284 0-15 6.716-15 15 0 8.285 6.716 15 15 15z"/><path d="m326.001 229.496h100.998c8.284 0 15-6.716 15-15s-6.716-15-15-15h-100.998c-8.284 0-15 6.716-15 15 0 8.285 6.716 15 15 15z"/><path d="m326.001 289.499h100.998c8.284 0 15-6.716 15-15s-6.716-15-15-15h-100.998c-8.284 0-15 6.716-15 15s6.716 15 15 15z"/><path d="m326.001 349.502h100.998c8.284 0 15-6.716 15-15s-6.716-15-15-15h-100.998c-8.284 0-15 6.716-15 15s6.716 15 15 15z"/></g></svg>