<svg id="Capa_1" enable-background="new 0 0 512.248 512.248" height="512" viewBox="0 0 512.248 512.248" width="512" xmlns="http://www.w3.org/2000/svg"><g><path d="m105.002 163.544h124.915c8.284 0 15-6.716 15-15v-60.004c0-8.284-6.716-15-15-15h-124.915c-8.284 0-15 6.716-15 15v60.004c0 8.284 6.716 15 15 15zm15-60.004h94.915v30.004h-94.915z"/><path d="m105.002 223.549h63.893c8.284 0 15-6.716 15-15s-6.716-15-15-15h-63.893c-8.284 0-15 6.716-15 15s6.716 15 15 15z"/><path d="m105.002 283.553h38.923c8.284 0 15-6.716 15-15s-6.716-15-15-15h-38.923c-8.284 0-15 6.716-15 15s6.716 15 15 15z"/><path d="m319.921 231.384c-41.355 0-75 33.645-75 75s33.645 75 75 75 75-33.645 75-75-33.645-75-75-75zm0 120c-24.814 0-45-20.187-45-45s20.186-45 45-45 45 20.187 45 45-20.187 45-45 45z"/><path d="m507.854 430.679-66.123-66.124c8.45-17.625 13.189-37.354 13.189-58.171 0-69.369-52.595-126.676-120-134.162v-143.686c0-8.284-6.716-15-15-15h-274.92c-24.813 0-45 20.187-45 45v337.848c0 24.813 20.187 45 45 45h17.455v21.664c0 4.822 2.318 9.35 6.229 12.169s8.94 3.586 13.515 2.061l25.255-8.419 25.255 8.419c1.55.517 3.15.77 4.743.77 3.109 0 6.185-.967 8.771-2.831 3.911-2.819 6.229-7.347 6.229-12.169v-21.664h167.468c20.816 0 40.546-4.739 58.17-13.19l66.125 66.125c2.813 2.814 6.628 4.394 10.606 4.394 3.979 0 7.794-1.581 10.607-4.394l42.426-42.427c5.859-5.858 5.859-15.355 0-21.213zm-462.854-387.143h259.921v128.686c-67.405 7.486-120 64.793-120 134.162 0 15.772 2.729 30.918 7.722 45h-147.643c-5.259 0-10.306.915-15 2.58v-295.428c0-8.271 6.729-15 15-15zm0 367.848c-8.271 0-15-6.729-15-15s6.729-15 15-15h17.455v30zm67.198 27.433c-3.08-1.026-6.408-1.026-9.488 0l-10.255 3.419v-60.852h29.998v44.98c0 .007-.001.013-.001.02s.001.013.001.02v15.833zm40.255-27.433v-30h55.273c7.598 11.328 16.866 21.444 27.446 30zm62.468-105c0-57.897 47.103-105 105-105s105 47.103 105 105-47.103 105-105 105c-57.898 0-105-47.103-105-105zm239.901 156.115-50.686-50.685c7.829-6.267 14.946-13.385 21.214-21.214l50.685 50.685z"/></g></svg>