<svg id="Capa_1" enable-background="new 0 0 512 512" height="512" viewBox="0 0 512 512" width="512" xmlns="http://www.w3.org/2000/svg"><g><path d="m146.993 284.17h-20.002c-8.284 0-15 6.716-15 15s6.716 15 15 15h20.002c8.284 0 15-6.716 15-15s-6.716-15-15-15z"/><path d="m227.001 284.17h-20.002c-8.284 0-15 6.716-15 15s6.716 15 15 15h20.002c8.283 0 15-6.716 15-15s-6.717-15-15-15z"/><path d="m146.993 344.173h-20.002c-8.284 0-15 6.716-15 15s6.716 15 15 15h20.002c8.284 0 15-6.716 15-15 0-8.285-6.716-15-15-15z"/><path d="m227.001 344.173h-20.002c-8.284 0-15 6.716-15 15s6.716 15 15 15h20.002c8.283 0 15-6.716 15-15 0-8.285-6.717-15-15-15z"/><path d="m307.009 344.173h-20.002c-8.284 0-15 6.716-15 15s6.716 15 15 15h20.002c8.284 0 15-6.716 15-15 0-8.285-6.716-15-15-15z"/><path d="m497 .001h-270c-8.284 0-15 6.716-15 15v89.165h-57.008v-15.002c0-8.284-6.716-15-15-15s-15 6.716-15 15v15.001h-64.992c-8.284 0-15 6.716-15 15v90 197.832h-30c-8.284 0-15 6.716-15 15v30.001c0 33.084 26.916 60 60 60h275.002c33.085 0 60-26.916 60-60v-197.833h101.998c8.284 0 15-6.716 15-15v-224.164c0-8.284-6.716-15-15-15zm-422 134.164h49.992v14.997c0 8.284 6.716 15 15 15s15-6.716 15-15v-14.997h57.008v60h-137zm-15 347.834c-16.542 0-30-13.458-30-30v-15.001h245.002v15.001c0 10.92 2.933 21.17 8.052 30zm305.002-30c0 16.542-13.458 30-30 30s-30-13.458-30-30v-30.001c0-8.284-6.716-15-15-15h-215.002v-182.833h137v15c0 8.284 6.716 15 15 15h32.504l25.503 34.001c2.833 3.777 7.279 6 12 6s9.167-2.223 12-6l25.503-34.001h30.492zm116.998-227.834h-154.99c-4.721 0-9.167 2.223-12 5.999l-18.003 24.003-18.003-24.003c-2.833-3.777-7.279-5.999-12-5.999h-25.004v-194.164h240z"/><path d="m287 194.165h150c8.284 0 15-6.716 15-15v-104.164c0-8.284-6.716-15-15-15h-45c-11.517 0-22.032 4.353-30 11.495-7.968-7.142-18.483-11.495-30-11.495h-45c-8.284 0-15 6.716-15 15v104.165c0 8.283 6.716 14.999 15 14.999zm90-89.164c0-8.271 6.728-15 15-15h30v74.165h-45zm-75-15h30c8.272 0 15 6.729 15 15v59.165h-45z"/></g></svg>