<svg id="Capa_1" enable-background="new 0 0 512.006 512.006" height="512" viewBox="0 0 512.006 512.006" width="512" xmlns="http://www.w3.org/2000/svg"><g><path d="m467.611 446.398-15.608-15.608v-384.789c0-8.284-6.716-15-15-15h-90.998v-16.001c0-8.284-6.716-15-15-15h-150.004c-8.284 0-15 6.716-15 15v16.001h-90.998c-8.284 0-15 6.716-15 15v384.861l-15.695 15.957c-2.76 2.806-4.306 6.583-4.306 10.519v39.668c0 8.284 6.716 15 15 15h402.002c8.284 0 15-6.716 15-15v-40.002c0-3.978-1.58-7.793-4.393-10.606zm-137.614-24.395v-104.999c0-8.284-6.716-15-15-15h-224.994v-30.002h332v30.002h-44.999c-8.284 0-15 6.716-15 15v104.999zm-59.998 0v-89.999h29.999v89.999zm-59.999 0v-89.999h29.999v89.999zm-59.998 0v-89.999h29.998v89.999zm-59.999 0v-89.999h29.998v89.999zm29.999-180.001h-29.999v-89.998h29.998v89.998zm182.004-89.998v89.998h-29.999v-89.998zm59.999 0v89.998h-29.999v-89.998zm59.998 0v89.998h-29.999v-89.998zm-179.995 89.998h-29.998v-89.998h29.998zm149.997 90.002h29.999v89.999h-29.999zm-196.004-302.004h120.004v15.991c0 .003-.001.006-.001.01 0 .003.001.006.001.01v15.991h-120.004zm-30 31.001v16.001c0 8.284 6.716 15 15 15h150.004c8.284 0 15-6.716 15-15v-16.001h75.998v61.003h-224.994c-8.284 0-15 6.716-15 15v104.998h-32.007v-104.998c0-8.284-6.716-15-15-15h-44.999v-61.003zm276.003 421.005h-372.002v-18.528l11.287-11.476h349.5l11.214 11.214v18.79z"/></g></svg>