<svg id="Capa_1" enable-background="new 0 0 511.999 511.999" height="512" viewBox="0 0 511.999 511.999" width="512" xmlns="http://www.w3.org/2000/svg"><g><path d="m496.999 329.993h-13.817v-120.001c0-8.284-6.716-15-15-15h-120c-8.284 0-15 6.716-15 15v24.262h-22.5c-28.949 0-52.5 23.551-52.5 52.5v81.243h-62.99v-23.091c16.364-15.587 26.594-37.558 26.594-61.888v-46.521c22.342-6.559 36.52-28.103 36.52-57.696v-26.822c0-8.284-6.716-15-15-15h-140.2c-28.855 0-52.33 23.476-52.33 52.332v92.935c-.013.255-.02.514-.02.773 0 24.332 10.232 46.306 26.6 61.893l.022 26.807-43.042 12.424c-.263.076-.525.159-.784.25-19.772 6.901-33.552 33.077-33.552 52.252v60.354c0 8.284 6.716 15 15 15h231.335c8.284 0 15-6.716 15-15v-25.002h56.848c24.813 0 45-20.187 45-45v-67.004h133.817c8.284 0 15-6.716 15-15-.001-8.285-6.717-15-15.001-15zm-416.223-140.683c0-12.314 10.017-22.332 22.33-22.332h125.2v11.822c0 11.128-2.793 29.796-21.501 29.796h-126.029zm0 93.708v-44.421h111.01v44.421c0 30.611-24.904 55.515-55.515 55.515-30.383 0-55.144-24.532-55.51-54.829.01-.228.015-.457.015-.686zm26.596 80.477c9.032 3.253 18.76 5.037 28.899 5.037 10.147 0 19.883-1.786 28.921-5.044v19.491c0 15.657-12.704 27.921-28.921 27.921-15.914 0-28.447-11.814-28.908-27.052.017-.292.025-.586.025-.881zm225.81 63.502c0 8.271-6.729 15-15 15h-71.848c-8.284 0-15 6.716-15 15v25.002h-201.334v-45.354c0-8.959 7.758-21.623 13.18-23.831l37.364-10.785c2.898 8.354 7.71 15.963 14.24 22.286 11.045 10.695 25.778 16.585 41.487 16.585 15.711 0 30.447-5.892 41.493-16.589 7.564-7.326 12.829-16.375 15.471-26.313h79.947c8.284 0 15-6.716 15-15v-43.005h45zm0-117.005h-45v-23.238c0-12.407 10.093-22.5 22.5-22.5h22.5zm60 20.001h-30v-105.001h30zm60 0h-30v-105.001h30z"/><path d="m318.181 165.001h178.818c8.284 0 15-6.716 15-15s-6.716-15-15-15h-13.817v-120.001c0-8.284-6.716-15-15-15h-120c-8.284 0-15 6.716-15 15v120.001h-15.001c-8.284 0-15 6.716-15 15s6.716 15 15 15zm105.001-135.001h30v105.001h-30zm-60 0h30v105.001h-30z"/></g></svg>