<svg id="Capa_1" enable-background="new 0 0 511.999 511.999" height="512" viewBox="0 0 511.999 511.999" width="512" xmlns="http://www.w3.org/2000/svg"><g><path d="m496.999 0h-481.999c-8.284 0-15 6.716-15 15v219.996c0 8.284 6.716 15 15 15h406.996v97.997h-39.982c-24.814 0-45.001 20.187-45.001 45v30c0 8.284 6.716 15 15 15h57.491v44.005h-38.745c-8.284 0-15 6.716-15 15s6.716 15 15 15h107.49c8.284 0 15-6.716 15-15s-6.716-15-15-15h-38.745v-44.005h27.492c24.814 0 45-20.187 45-45l.003-377.993c0-8.284-6.716-15-15-15zm-72.252 219.996h-94.737v-69.99h151.989v43.068c-4.695-1.665-9.743-2.581-15.003-2.581-19.37 0-35.92 12.302-42.249 29.503zm57.252-99.99h-151.989v-90.006h151.989zm-451.999-90.006h270.01v189.996h-30.006v-144.993c0-8.284-6.716-15-15.001-15h-60c-8.284 0-15 6.716-15 15v15.002h-30v-15.002c0-8.284-6.716-15-15-15h-60c-8.284 0-15 6.716-15 15v144.993h-30.003zm90.003 189.996h-30v-129.993h30zm30-99.992h30v99.992h-30zm60-30.001h30v129.993h-30zm271.993 302.991c0 8.271-6.728 15-15 15h-99.983v-15c0-8.271 6.729-15 15.001-15h54.982c8.284 0 15-6.716 15-15v-127.5c0-8.271 6.729-15 15-15 8.272 0 15 6.729 15 15z"/><path d="m383.516 90.003h43.474c8.284 0 15-6.716 15-15s-6.716-15-15-15h-43.474c-8.284 0-15 6.716-15 15s6.715 15 15 15z"/><path d="m263.51 279.999h-200.012c-24.813 0-45 20.186-45 45v30c0 8.284 6.716 15 15 15h15.002v127c0 8.284 6.715 15 15 15h200.008c8.284 0 15-6.716 15-15v-127h15c8.284 0 15-6.716 15-15v-30c0-24.814-20.186-45-44.998-45zm-15.002 202h-170.009v-112h170.008v112zm30-142h-230.01v-15c0-8.271 6.729-15 15-15h200.012c8.27 0 14.998 6.729 14.998 15z"/></g></svg>