<svg id="Capa_1" enable-background="new 0 0 511.999 511.999" height="512" viewBox="0 0 511.999 511.999" width="512" xmlns="http://www.w3.org/2000/svg"><g><path d="m275.393 456.391-4.393 4.394v-47.937c0-8.284-6.716-15-15-15s-15 6.716-15 15v47.937l-4.394-4.394c-5.856-5.858-15.354-5.857-21.213-.001-5.858 5.858-5.858 15.355 0 21.213l30 30.002c2.813 2.813 6.628 4.393 10.606 4.393s7.794-1.581 10.606-4.393l30-30.002c5.858-5.858 5.858-15.355 0-21.213-5.856-5.857-15.355-5.856-21.212.001z"/><path d="m416.612 456.391c-5.857-5.857-15.355-5.857-21.213.001l-4.393 4.394v-47.937c0-8.284-6.716-15-15-15s-15 6.716-15 15v47.937l-4.394-4.394c-5.857-5.858-15.355-5.857-21.213-.001-5.858 5.858-5.858 15.355 0 21.213l30 30.002c2.813 2.813 6.628 4.393 10.607 4.393 3.978 0 7.794-1.581 10.606-4.393l30-30.002c5.858-5.858 5.858-15.355 0-21.213z"/><path d="m155.387 456.391-4.394 4.394v-47.937c0-8.284-6.716-15-15-15s-15 6.716-15 15v47.937l-4.394-4.394c-5.856-5.858-15.354-5.857-21.213-.001-5.858 5.858-5.858 15.355 0 21.213l30 30.002c2.813 2.813 6.628 4.393 10.606 4.393 3.979 0 7.794-1.581 10.606-4.393l30-30.002c5.858-5.858 5.858-15.355 0-21.213-5.855-5.857-15.353-5.856-21.211.001z"/><path d="m156.146 367.845h229.707c6.306 0 11.972-3.914 14.129-9.839s.413-12.538-4.417-16.592c-2.778-2.392-10.712-10.939-10.712-18.569 0-7.629 7.934-16.177 10.645-18.512 3.461-2.905 5.344-7.141 5.346-11.488h.01v-277.845c0-8.284-6.716-15-15-15h-229.708c-24.813 0-45 20.187-45 45v277.845c0 24.813 20.187 45 45 45zm-15-322.845c0-8.271 6.729-15 15-15h214.707v247.845h-214.707c-5.259 0-10.305.915-15 2.58zm15 262.845h201.409c-1.646 4.586-2.702 9.623-2.702 15 0 5.378 1.057 10.414 2.702 15h-201.409c-8.27 0-15-6.729-15-15s6.73-15 15-15z"/><path d="m219.557 220.549h72.884c26.691 0 48.406-21.714 48.406-48.405 0-22.08-14.861-40.755-35.108-46.548-5.823-22.02-25.916-38.3-49.74-38.3s-43.918 16.281-49.741 38.3c-20.245 5.792-35.107 24.467-35.107 46.548.001 26.691 21.716 48.405 48.406 48.405zm0-66.811c8.284 0 15-6.716 15-15 0-11.823 9.619-21.442 21.442-21.442s21.441 9.619 21.441 21.442c0 8.284 6.716 15 15 15 10.149 0 18.406 8.256 18.406 18.405s-8.257 18.405-18.406 18.405h-72.884c-10.148 0-18.405-8.256-18.405-18.405.001-10.148 8.258-18.405 18.406-18.405z"/></g></svg>