<svg id="Capa_1" enable-background="new 0 0 511.998 511.998" height="512" viewBox="0 0 511.998 511.998" width="512" xmlns="http://www.w3.org/2000/svg"><g><path d="m496.998 31.494h-316.992v-15.996c0-8.284-6.716-15-15-15s-15 6.716-15 15v15.996h-60v-15.996c0-8.284-6.716-15-15-15s-15 6.716-15 15v15.996h-45.006c-8.284 0-15 6.716-15 15v450.006c0 8.284 6.716 15 15 15h481.998c8.284 0 15-6.716 15-15v-450.006c0-8.284-6.716-15-15-15zm-436.992 450.006h-30.006v-120.003h30.006zm0-150.003h-30.006v-121.006h30.006zm0-151.006h-30.006v-118.997h30.006zm90 301.009h-60v-45.001h60zm0-75.001h-60v-45.001h60zm0-75.002h-60v-45.503h60zm0-75.503h-60v-45.503h60zm0-75.503h-60v-44.499h60zm0-74.498h-60v-44.499h60zm120.992 375.507h-29.999v-59.995h29.999zm59.999 0h-29.999v-59.995h29.999zm59.999 0h-29.999v-59.995h29.999zm0-89.995h-164.997c-8.284 0-15 6.716-15 15v74.995h-30.993v-120.003h210.99zm-149.997-60.008v-59.997h29.999v59.997zm59.999 0v-59.997h29.999v59.997zm89.998 0h-29.999v-59.997h29.999zm0-89.997h-164.997c-8.284 0-15 6.716-15 15v74.997h-30.993v-121.006h210.99zm-149.997-61.009v-59.997h29.999v59.997zm59.999 0v-59.997h29.999v59.997zm89.998 0h-29.999v-59.997h29.999zm0-89.997h-164.997c-8.284 0-15 6.716-15 15v74.997h-30.993v-118.997h210.99zm91.002 391.006h-61.002v-420.006h61.002z"/></g></svg>