<svg id="Capa_1" enable-background="new 0 0 511.662 511.662" height="512" viewBox="0 0 511.662 511.662" width="512" xmlns="http://www.w3.org/2000/svg"><g><path d="m108.758 150.003h178.264c8.284 0 15-6.716 15-15v-60.003c0-8.284-6.716-15-15-15h-178.264c-8.284 0-15 6.716-15 15v60.003c0 8.284 6.716 15 15 15zm15-60.003h148.264v30.003h-148.264z"/><path d="m108.758 210.006h109.386c8.284 0 15-6.716 15-15s-6.716-15-15-15h-109.386c-8.284 0-15 6.716-15 15s6.716 15 15 15z"/><path d="m108.758 270.009h109.386c8.284 0 15-6.716 15-15s-6.716-15-15-15h-109.386c-8.284 0-15 6.716-15 15s6.716 15 15 15z"/><path d="m433.505 272.516c-9.571-8.755-19.193-15.081-27.074-19.457 8.719-14.067 19.392-35.874 19.392-58.39 0-8.284-6.716-15-15-15h-46.664v-164.669c0-8.284-6.716-15-15-15h-270.4c-24.813 0-45 20.187-45 45v319.855c0 24.813 20.187 45 45 45h140.982v56.807c0 24.813 20.187 45 45 45h168.163c24.813 0 45-20.187 45-45v-88.495c0-53.757-24.144-87.125-44.399-105.651zm-57.115-28.394h-55.136c-4.992-7.055-13.29-20.2-17.228-34.453h89.592c-3.939 14.254-12.237 27.399-17.228 34.453zm-297.632-214.122h255.4v149.669h-47.338c-8.284 0-15 6.716-15 15 0 22.516 10.673 44.323 19.392 58.39-7.881 4.375-17.503 10.702-27.074 19.457-11.573 10.585-24.408 26.027-33.291 47.339h-152.089c-5.258 0-10.305.915-15 2.58v-277.435c0-8.271 6.729-15 15-15zm0 349.855c-8.271 0-15-6.729-15-15s6.729-15 15-15h143.379c-1.534 8.736-2.397 18.159-2.397 28.313v1.688h-140.982zm369.146 86.807c0 8.271-6.729 15-15 15h-168.163c-8.271 0-15-6.729-15-15v-88.495c0-74.1 55.226-99.564 66.68-104.045h64.794c11.594 4.543 66.689 30.034 66.689 104.045z"/><path d="m361.339 364.497c-9.788-3.61-18.951-7.524-22.533-9.083-.214-.285-.379-.722-.28-1.406.216-1.51 1.628-2.763 3.871-3.44 10.167-3.061 18.914 3.976 19.502 4.463 6.216 5.396 15.632 4.775 21.084-1.411 5.477-6.215 4.88-15.693-1.335-21.171-3.77-3.323-10.093-7.355-17.975-9.956v-3.513c0-8.284-6.716-15-15-15s-15 6.716-15 15v2.887c-13.443 4.078-22.961 14.754-24.844 27.88-1.785 12.44 3.613 24.408 14.087 31.235.662.432 1.357.811 2.08 1.133.503.225 12.48 5.556 25.96 10.528 5.428 2.002 8.956 4.878 8.578 6.994-.471 2.638-4.507 6.292-10.861 6.292-7.378 0-14.436-2.928-18.879-7.831-5.563-6.14-15.049-6.606-21.188-1.044-6.139 5.563-6.606 15.049-1.044 21.188 6.899 7.613 16.003 13.018 26.111 15.72v2.841c0 8.284 6.716 15 15 15s15-6.716 15-15v-3.415c13.139-4.63 23.024-15.207 25.394-28.478 2.333-13.063-3.529-31.487-27.728-40.413z"/></g></svg>