<svg id="Capa_1" enable-background="new 0 0 511.999 511.999" height="512" viewBox="0 0 511.999 511.999" width="512" xmlns="http://www.w3.org/2000/svg"><g><path d="m396.913 306.885c-.154-.054-.31-.105-.466-.154l-72.524-22.693v-21.924c19.717-18.278 32.08-44.371 32.08-73.287v-11.013c7.435-10.388 11.829-23.094 11.829-36.814 0-10.721-2.685-20.823-7.4-29.686 10.999-8.669 21.766-24.501 27.186-53.184 4.231-22.391 3.411-42.91 3.374-43.773-.345-8.027-6.952-14.357-14.987-14.357h-160.007c-33.084 0-60 26.916-60 60v44.183c-7.436 10.389-11.831 23.096-11.831 36.817 0 13.722 4.395 26.429 11.831 36.817v11.01c0 28.848 12.347 54.903 32.047 73.182l.021 22.032-72.513 22.689c-.156.049-.312.1-.466.154-21.521 7.516-38.378 31.258-38.378 54.052v106.062c0 24.813 20.187 45 45 45h298.58c8.284 0 15-6.716 15-15v-136.061c.001-22.794-16.857-46.537-38.376-54.052zm-92.498-132.468c-18.413 0-33.395-14.97-33.415-33.378 0-.013.001-.025.001-.039s-.001-.026-.001-.039c.021-18.408 15.002-33.378 33.415-33.378 18.426 0 33.417 14.991 33.417 33.416 0 18.427-14.992 33.418-33.417 33.418zm-118.417-114.417c0-16.542 13.458-30 30-30h144.845c-1.208 21.409-6.649 49.98-20.46 58.811-10.228-7.071-22.62-11.227-35.969-11.227-14.086 0-27.109 4.622-37.647 12.421h-21.537c-10.537-7.799-23.56-12.421-37.646-12.421-7.576 0-14.845 1.34-21.586 3.788zm-11.831 81c0-18.426 14.99-33.416 33.417-33.416 18.413 0 33.394 14.97 33.415 33.378 0 .013-.001.025-.001.039s.001.026.001.039c-.021 18.408-15.002 33.378-33.415 33.378-18.426-.001-33.417-14.992-33.417-33.418zm12.918 59.997c6.436 2.205 13.326 3.42 20.499 3.42 19.394 0 36.773-8.76 48.415-22.522 11.642 13.762 29.021 22.522 48.415 22.522 7.176 0 14.068-1.215 20.506-3.421-5.784 32.783-34.478 57.798-68.879 57.83-34.456-.095-63.16-25.104-68.956-57.829zm30.98 80.265c11.707 4.835 24.52 7.527 37.95 7.564 13.412-.013 26.21-2.683 37.908-7.5v13.736c0 20.94-17.012 37.977-37.922 37.977-20.736 0-37.632-16.715-37.946-37.378.008-.205.024-.407.024-.614zm5.935 81.777h79v51.791h-94v-36.791c0-8.271 6.729-15 15-15zm1.98 118.96h-104.271c-8.271 0-15-6.729-15-15v-106.062c0-10.057 8.589-22.221 18.072-25.659l66.125-20.69c2.604 8.673 6.9 16.62 12.498 23.461-14.478 7.488-24.404 22.597-24.404 39.99v36.791h-15.001c-8.284 0-15 6.716-15 15s6.716 15 15 15h61.981zm107.023-16.512c0 9.102-7.403 16.507-16.504 16.512h-60.519v-37.169h77.023zm72.287 16.512h-45.325c1.957-5.135 3.039-10.699 3.039-16.512v-35.657c0-8.284-6.716-15-15-15h-15.004v-66.791c0-8.284-6.716-15-15-15h-5.721c3.795-5.618 6.785-11.825 8.776-18.463l66.163 20.702c9.482 3.438 18.07 15.602 18.07 25.659v121.062z"/></g></svg>