<svg id="Capa_1" enable-background="new 0 0 511.999 511.999" height="512" viewBox="0 0 511.999 511.999" width="512" xmlns="http://www.w3.org/2000/svg"><g><path d="m437.496 338.667h.005v-323.667c0-8.284-6.716-15-15-15h-273.002c-41.355 0-75 33.645-75 75.001v323.667c0 41.355 33.645 75 75 75h106.501v23.332c0 5.273 2.769 10.158 7.292 12.868 4.521 2.71 10.137 2.845 14.785.358l24.715-13.226 26.436 13.383c2.135 1.081 4.457 1.617 6.773 1.617 2.73 0 5.453-.745 7.855-2.221 4.44-2.729 7.145-7.567 7.145-12.779v-23.332h71.499c5.305 0 10.204-2.821 12.902-7.388 2.699-4.566 2.774-10.239.216-14.886-.131-.238-13.114-24.15-13.114-52.726s12.983-52.488 13.094-52.688c1.269-2.275 1.898-4.795 1.898-7.313zm-287.997-308.667h258.001v293.667h-258.001c-16.871 0-32.456 5.603-45 15.041v-263.708c-.001-24.813 20.186-45 45-45zm0 413.667c-24.814 0-45-20.187-45-45s20.187-45 45-45h250.551c-2.743 8.357-5.351 18.619-6.662 30h-243.884c-8.284 0-15 6.716-15 15s6.716 15 15 15h106.496v30zm171.504 28.926-11.629-5.887c-4.366-2.211-9.536-2.152-13.852.157l-9.522 5.097v-13.273c0-.006.001-.013.001-.019s-.001-.013-.001-.019v-44.981h35.003zm30-28.926v-30h42.385c1.311 11.381 3.919 21.643 6.662 30z"/><path d="m307.496 242.168h-102.993c-8.284 0-15 6.716-15 15s6.716 15 15 15h102.992c8.284 0 15-6.716 15-15 .001-8.284-6.715-15-14.999-15z"/><path d="m214.249 189.444c17.518 13.273 34.907 21.094 35.639 21.42 1.945.868 4.028 1.301 6.111 1.301s4.166-.434 6.111-1.301c.731-.326 18.121-8.146 35.639-21.42 25.634-19.423 38.632-40.349 38.632-62.195 0-30.741-25.01-55.75-55.751-55.75-8.67 0-17.028 1.956-24.631 5.718-7.602-3.762-15.961-5.718-24.631-5.718-30.741 0-55.751 25.009-55.751 55.75.001 21.846 12.999 42.772 38.632 62.195zm17.12-87.945c5.67 0 11.049 1.81 15.555 5.234 5.365 4.076 12.787 4.076 18.152 0 4.506-3.424 9.885-5.234 15.555-5.234 14.199 0 25.751 11.551 25.751 25.75 0 22.254-32.68 43.942-50.398 53.229-17.719-9.245-50.365-30.864-50.365-53.229-.001-14.199 11.55-25.75 25.75-25.75z"/></g></svg>