<svg id="Capa_1" enable-background="new 0 0 511.999 511.999" height="512" viewBox="0 0 511.999 511.999" width="512" xmlns="http://www.w3.org/2000/svg"><g><path d="m466.997 205.99h-83.347l-67.65-110.458v-65.532h5.002c8.283 0 15-6.716 15-15s-6.717-15-15-15h-130.005c-8.284 0-15 6.716-15 15s6.716 15 15 15h5.002v65.532l-67.65 110.458h-83.348c-8.285 0-15 6.716-15 15v276.009c0 8.284 6.715 15 15 15h421.996c8.284 0 15-6.716 15-15v-276.009c0-8.284-6.715-15-15-15zm-321.628 29.463c.353-.45 78.423-127.857 78.423-127.857 1.442-2.358 2.208-5.069 2.208-7.835v-69.761h60v69.761c0 2.765.765 5.476 2.208 7.835 0 0 78.07 127.407 78.423 127.857 7.018 8.972 8.329 21.387 3.34 31.627-4.991 10.24-15.577 16.857-26.969 16.857h-174.005c-11.392 0-21.977-6.617-26.968-16.856-4.989-10.241-3.68-22.656 3.34-31.628zm-85.368 246.546v-30.003h150.998c16.542 0 30 13.458 30 30zm180.998-51.931c-8.832-5.123-19.075-8.072-30-8.072h-150.998v-186.006h51.794c-4.478 14.404-3.513 30.321 3.267 44.233.627 1.285 1.297 2.541 2.009 3.768h-12.067c-8.284 0-15 6.716-15 15s6.716 15 15 15l135.996-.054v116.131zm210.998 51.931h-180.997v-.003c0-16.542 13.458-30 30-30h150.998v30.003zm0-60.003h-150.997c-10.925 0-21.168 2.949-30 8.072v-116.131l135.982.054h.014c8.278 0 14.993-6.708 15-14.987.007-8.284-6.703-15.006-14.987-15.013l-12.073-.01c.709-1.224 1.378-2.477 2.003-3.759 6.778-13.911 7.743-29.829 3.266-44.232h51.794v186.006z"/><path d="m406.996 343.995h-90.993c-8.284 0-15 6.716-15 15s6.716 15 15 15h90.993c8.284 0 15-6.716 15-15s-6.716-15-15-15z"/><path d="m90.003 358.995c0 8.284 6.716 15 15 15h90.993c8.284 0 15-6.716 15-15s-6.716-15-15-15h-90.993c-8.284 0-15 6.716-15 15z"/><path d="m197.148 253.937h117.703c5.345 0 10.285-2.843 12.97-7.464s2.708-10.321.061-14.964l-39.905-70.003c-2.668-4.681-7.642-7.571-13.031-7.571h-37.893c-5.389 0-10.363 2.89-13.031 7.571l-39.905 70.003c-2.646 4.643-2.623 10.343.062 14.964 2.684 4.621 7.624 7.464 12.969 7.464zm48.62-70.003h20.462l22.805 40.003h-66.07z"/></g></svg>