<svg id="Capa_1" enable-background="new 0 0 511.999 511.999" height="512" viewBox="0 0 511.999 511.999" width="512" xmlns="http://www.w3.org/2000/svg"><g><path d="m466.998 205.989h-38.862c8.539-18.55 14.505-41.284 14.505-68.63 0-94.371-70.975-133.911-73.997-135.548-4.457-2.415-9.834-2.415-14.291 0-3.022 1.637-73.997 41.177-73.997 135.548 0 27.494 6.03 50.326 14.643 68.931-15.483 1.544-29.241 9.006-38.999 20.077-11.003-12.481-27.092-20.377-45-20.377h-165.999c-8.284 0-15 6.716-15 15v276.01c0 8.284 6.716 15 15 15h421.996c8.284 0 15-6.716 15-15v-276.01c.001-8.285-6.715-15.001-14.999-15.001zm-225.998 276.01h-180.999v-30.004h150.999c16.542 0 30 13.458 30 30zm0-51.931c-8.833-5.123-19.075-8.072-30-8.072h-150.999v-186.007h150.999c16.542 0 30 13.458 30 30zm98.159-375.776c8.278-10.092 16.664-17.141 22.365-21.347 15.581 11.466 51.117 44.224 51.117 104.415 0 31.819-9.69 59.767-28.803 83.067-2.462 3.001-4.931 5.727-7.339 8.195v-133.618c0-8.284-6.716-15-15-15s-15 6.716-15 15v133.619c-2.408-2.468-4.878-5.194-7.34-8.196-19.112-23.3-28.803-51.248-28.803-83.067 0-31.82 9.691-59.768 28.803-83.068zm112.839 427.707h-180.998v-.004c0-16.542 13.458-30 30-30h150.998zm0-60.004h-150.998c-10.925 0-21.168 2.949-30 8.072v-164.078c0-16.542 13.458-30 30-30h12.085c12.355 15.931 25.357 26.356 33.414 31.955v29.053c0 8.284 6.716 15 15 15s15-6.716 15-15v-29.054c8.057-5.599 21.059-16.024 33.413-31.954h42.086z"/><path d="m316.003 343.995c-8.284 0-15 6.716-15 15s6.716 15 15 15h90.993c8.284 0 15-6.716 15-15s-6.716-15-15-15z"/><path d="m195.997 283.991h-90.993c-8.284 0-15 6.716-15 15s6.716 15 15 15h90.993c8.284 0 15-6.716 15-15s-6.716-15-15-15z"/><path d="m195.997 343.995h-90.993c-8.284 0-15 6.716-15 15s6.716 15 15 15h90.993c8.284 0 15-6.716 15-15s-6.716-15-15-15z"/></g></svg>