<svg id="Capa_1" enable-background="new 0 0 511.999 511.999" height="512" viewBox="0 0 511.999 511.999" width="512" xmlns="http://www.w3.org/2000/svg"><g><path d="m466.998 205.99h-144.346l-10.452-46.419c12.52-2.559 24.132-5.976 34.373-10.2 28.649-11.818 44.427-29.174 44.427-48.87 0-10.908-4.928-26.861-28.407-40.918-12.933-7.744-29.9-13.882-49.485-17.964-7.781-24.118-30.435-41.619-57.109-41.619s-49.327 17.501-57.108 41.619c-19.585 4.082-36.552 10.22-49.485 17.964-23.479 14.057-28.407 30.01-28.407 40.918 0 19.696 15.778 37.052 44.427 48.87 10.241 4.225 21.853 7.642 34.373 10.2l-10.452 46.419h-144.346c-8.284 0-15 6.716-15 15v276.009c0 8.284 6.716 15 15 15h421.997c8.284 0 15-6.716 15-15v-276.009c0-8.284-6.716-15-15-15zm-210.999-175.99c16.542 0 30 13.458 30 30 0 6.116-11.687 15-30 15s-30-8.884-30-15c0-16.542 13.459-30 30-30zm-105 70.501c0-7.288 15.123-20.118 47.276-27.997 7.061 18.961 29.89 32.496 57.724 32.496s50.664-13.535 57.724-32.496c32.154 7.879 47.277 20.709 47.277 27.997 0 11.71-37.062 34.502-105 34.502s-105.001-22.792-105.001-34.502zm90 381.498h-180.998v-30.003h150.999c16.542 0 30 13.458 30 30v.003zm0-51.931c-8.832-5.123-19.075-8.072-30-8.072h-150.998v-186.006h122.591l-10.808 48.001h-66.78c-8.284 0-15 6.716-15 15s6.716 15 15 15h60.024l-4.663 20.707c-.244 1.082-.366 2.187-.366 3.296 0 2.047.23 4.047.662 6.001h-55.658c-8.284 0-15 6.716-15 15s6.716 15 15 15h83.752c14.584 7.537 33.211 12.543 52.243 14.298v41.775zm-32.722-80.019c-11.629-4.914-16.495-9.869-17.921-11.972l39.232-174.227c8.608.755 17.443 1.153 26.412 1.153s17.804-.398 26.412-1.153l39.232 174.227c-1.426 2.103-6.292 7.058-17.921 11.972-13.65 5.768-30.599 8.944-47.723 8.944s-34.073-3.177-47.723-8.944zm243.721 131.95h-180.998v-.003c0-16.542 13.458-30 30-30h150.998zm0-60.003h-150.998c-10.925 0-21.168 2.949-30 8.072v-41.775c19.032-1.755 37.659-6.762 52.243-14.298h83.752c8.284 0 15-6.716 15-15s-6.716-15-15-15h-55.658c.432-1.954.662-3.954.662-6.001 0-1.109-.123-2.214-.366-3.296l-4.663-20.707h60.024c8.284 0 15-6.716 15-15s-6.716-15-15-15h-66.78l-10.808-48.001h122.591v186.006z"/></g></svg>