<svg id="Capa_1" enable-background="new 0 0 511.949 511.949" height="512" viewBox="0 0 511.949 511.949" width="512" xmlns="http://www.w3.org/2000/svg"><g><path d="m466.973 205.94h-75.855v-75.439c0-8.284-6.716-15-15-15h-11.374c4.681-8.39 7.359-18.042 7.359-28.313 0-39.288-43.398-79.001-48.347-83.4-5.684-5.052-14.248-5.052-19.932 0-4.689 4.169-43.902 40.054-47.994 77.234-9.795-3.074-20.208-4.736-31.002-4.744-.039 0-.081 0-.124 0-57.279.068-103.874 46.71-103.874 103.996 0 8.721 1.129 17.339 3.274 25.664h-79.128c-8.285 0-15 6.716-15 15v276.009c0 8.284 6.715 15 15 15h421.997c8.284 0 15-6.716 15-15v-276.007c0-8.284-6.716-15-15-15zm-144.203-60.438h38.348v138.439h-60.883l-5.566-26.736c21.5-19.607 34.091-47.703 34.091-76.929-.001-12.189-2.117-23.894-5.99-34.774zm-8.965-109.339c12.185 13.222 28.298 34.44 28.298 51.026 0 15.612-12.701 28.313-28.313 28.313-3.06 0-6.04-.483-8.897-1.433-5.178-6.254-11.072-11.892-17.555-16.792-1.232-3.208-1.859-6.588-1.859-10.087 0-16.509 16.139-37.775 28.326-51.027zm-72.83 445.786h-180.999v-30.003h150.999c16.542 0 30 13.458 30 30zm0-51.931c-8.833-5.123-19.075-8.072-30-8.072h-150.999v-186.006h77.124c4.943 7.799 10.921 14.971 17.822 21.265l-5.566 26.736h-44.377c-8.284 0-15 6.716-15 15s6.716 15 15 15h135.996zm-.179-146.077v-14.668c0-8.284-6.715-15-15-15-8.284 0-15 6.716-15 15v14.668h-30.796l6.13-29.444c1.185-5.69-1.024-11.552-5.669-15.045-18.829-14.161-29.628-35.729-29.628-59.175 0-40.748 33.131-73.927 73.858-73.996h.107.021c25.442.018 47.922 12.952 61.232 32.583.021.031.044.061.065.092 7.979 11.809 12.644 26.032 12.644 41.321 0 23.446-10.799 45.014-29.629 59.175-4.646 3.493-6.854 9.356-5.67 15.046l6.131 29.444h-28.796zm211.177 198.008h-180.998v-.003c0-16.542 13.458-30 30-30h150.998zm0-60.003h-150.998c-10.925 0-21.168 2.949-30 8.072v-116.077h135.996c8.284 0 15-6.716 15-15s-6.716-15-15-15h-15.853v-48.001h60.855z"/><path d="m406.971 343.945h-90.993c-8.284 0-15 6.716-15 15s6.716 15 15 15h90.993c8.284 0 15-6.716 15-15s-6.716-15-15-15z"/><path d="m89.979 358.945c0 8.284 6.716 15 15 15h90.993c8.284 0 15-6.716 15-15s-6.716-15-15-15h-90.993c-8.284 0-15 6.716-15 15z"/><path d="m270.874 189.714v-9.889c0-8.284-6.716-15-15-15s-15 6.716-15 15v9.889c0 8.284 6.716 15 15 15s15-6.716 15-15z"/><path d="m195.723 164.826c-8.284 0-15 6.716-15 15v9.889c0 8.284 6.716 15 15 15s15-6.716 15-15v-9.889c0-8.285-6.716-15-15-15z"/></g></svg>