<svg id="Capa_1" enable-background="new 0 0 512 512" height="512" viewBox="0 0 512 512" width="512" xmlns="http://www.w3.org/2000/svg"><g><path d="m466.998 205.991h-53.77c3.752-13.704 5.767-28.118 5.767-42.996-.001-89.876-73.12-162.995-162.995-162.995s-162.994 73.119-162.994 162.995c0 14.878 2.015 29.292 5.767 42.996h-53.771c-8.284 0-15 6.716-15 15v276.009c0 8.284 6.716 15 15 15h421.996c8.284 0 15-6.716 15-15v-276.009c0-8.284-6.716-15-15-15zm-210.998-175.991c13.375 0 26.292 1.993 38.478 5.683 1.004 4.346 1.522 8.801 1.522 13.317 0 17.31-2.814 29.172-8.136 34.304-6.337 6.109-20.025 5.61-35.873 5.031-19.311-.704-41.202-1.503-62.574 8.58-12.273 5.79-20.876 15.205-28.466 23.512-11.092 12.14-19.117 20.911-36.033 20.076 10.718-62.659 65.414-110.503 131.082-110.503zm-195.998 452v-30.003h150.998c16.542 0 30 13.458 30 30zm180.998-51.931c-8.832-5.123-19.075-8.072-30-8.072h-150.998v-186.006h50.293c9.158 18.207 21.625 34.474 36.614 48.001h-41.905c-8.284 0-15 6.716-15 15s6.716 15 15 15h89.642c14.531 5.926 30.101 9.812 46.355 11.302v104.775zm15-134.079c-.003 0-.005 0-.008 0-70.84-.004-128.914-55.684-132.775-125.579 1.313.067 2.607.111 3.869.111 28.728 0 44.149-16.875 56.013-29.859 6.546-7.164 12.199-13.352 19.119-16.616 14.772-6.969 32.011-6.339 48.68-5.732 20.782.76 42.276 1.543 57.79-13.415 11.668-11.25 17.168-28.737 17.3-54.946 37.79 23.483 63.007 65.369 63.007 113.04 0 4.346-.217 8.641-.626 12.881-8.003-3.251-16.556-6.071-25.636-8.404-28.212-7.248-52.844-7.669-73.204-1.254-18.977 5.978-33.332 17.607-41.513 33.628-13.524 26.485-6.625 59.581 16.404 78.696 5.846 4.852 10.804 9.909 15.057 15.373-7.62 1.363-15.463 2.075-23.469 2.075-.003.002-.005.001-.008.001zm125.944-90.242c-12.017 35.303-38.488 63.974-72.325 78.941-6.89-10.826-15.484-20.47-26.039-29.231-12.321-10.227-16.042-27.877-8.847-41.969 10.642-20.841 40.747-27.181 80.534-16.961 9.697 2.492 18.612 5.589 26.677 9.22zm70.054 276.252h-180.998v-.003c0-16.542 13.458-30 30-30h150.998zm0-60.003h-150.998c-10.925 0-21.168 2.949-30 8.072v-104.775c16.254-1.49 31.823-5.376 46.354-11.302h89.642c8.284 0 15-6.716 15-15s-6.716-15-15-15h-41.905c14.989-13.527 27.456-29.794 36.614-48.001h50.293z"/><path d="m406.996 343.996h-90.993c-8.284 0-15 6.716-15 15s6.716 15 15 15h90.993c8.284 0 15-6.716 15-15s-6.716-15-15-15z"/><path d="m90.004 358.996c0 8.284 6.716 15 15 15h90.993c8.284 0 15-6.716 15-15s-6.716-15-15-15h-90.993c-8.284 0-15 6.716-15 15z"/><circle cx="186.8" cy="217.29" r="15"/></g></svg>