<svg id="Capa_1" enable-background="new 0 0 511.999 511.999" height="512" viewBox="0 0 511.999 511.999" width="512" xmlns="http://www.w3.org/2000/svg"><g><path d="m466.997 205.99h-135.997v-55.987h5.002c8.283 0 15-6.716 15-15s-6.717-15-15-15h-65.002v-30.003h15c24.813 0 45-20.187 45-45v-30c0-8.284-6.717-15-15-15h-30c-11.518 0-22.032 4.353-30 11.495-7.969-7.142-18.484-11.495-30.001-11.495h-30c-8.284 0-15 6.716-15 15v30c0 24.813 20.187 45 45 45h15v30.003h-65.002c-8.284 0-15 6.716-15 15s6.716 15 15 15h5.002v55.987h-135.998c-8.285 0-15 6.716-15 15v276.009c0 8.284 6.715 15 15 15h421.996c8.284 0 15-6.716 15-15v-276.009c0-8.284-6.715-15-15-15zm-195.997-160.99c0-8.271 6.728-15 15-15h15v15c0 8.271-6.729 15-15 15h-15zm-45.001 15c-8.271 0-15-6.729-15-15v-15h15c8.271 0 15 6.729 15 15v15zm-165.998 421.999v-30.003h150.998c16.542 0 30 13.458 30 30zm180.998-51.931c-8.832-5.123-19.075-8.072-30-8.072h-150.998v-186.006h120.998v48.001h-75.996c-8.284 0-15 6.716-15 15s6.716 15 15 15h75.996v16.999c0 4.437.409 8.777 1.152 13.005h-77.148c-8.284 0-15 6.716-15 15s6.716 15 15 15h89.605c10.83 15.414 27.295 26.594 46.391 30.486zm-30-99.078v-180.987h30v180.987c0 8.284 6.716 15 15 15 8.283 0 15-6.716 15-15v-180.987h30v180.987c0 24.813-20.187 45-45 45s-45-20.187-45-45zm240.998 151.009h-180.997v-.002-.001c0-16.542 13.458-30 30-30h150.998v30.003zm0-60.003h-150.997c-10.925 0-21.168 2.949-30 8.072v-25.587c19.096-3.892 35.56-15.072 46.391-30.486h89.605c8.284 0 15-6.716 15-15s-6.716-15-15-15h-77.148c.743-4.227 1.152-8.568 1.152-13.005v-16.999h75.996c8.284 0 15-6.716 15-15s-6.716-15-15-15h-75.996v-48.001h120.998v186.006z"/></g></svg>