<svg id="Capa_1" enable-background="new 0 0 512 512" height="512" viewBox="0 0 512 512" width="512" xmlns="http://www.w3.org/2000/svg"><g><path d="m324 117.035c0-8.283-6.716-15-15-15h-106c-8.284 0-15 6.717-15 15 0 8.284 6.716 15 15 15h.744v27c0 30.055-8.354 39.2-9.347 40.179-6.401 4.471-8.338 13.2-4.263 20 2.811 4.691 7.782 7.29 12.88 7.29 2.624 0 5.283-.689 7.697-2.136 3.846-2.306 23.032-16.29 23.032-65.333v-27h32.976l.001 52.188c0 23.313 18.966 42.278 42.279 42.278 8.284 0 15-6.716 15-15s-6.716-15-15-15c-6.771 0-12.279-5.508-12.279-12.278l-.001-52.188h12.281c8.284 0 15-6.716 15-15z"/><path d="m466.998 205.99h-53.771c3.752-13.704 5.767-28.118 5.767-42.996 0-89.875-73.119-162.994-162.994-162.994s-162.994 73.119-162.994 162.994c0 14.878 2.015 29.292 5.767 42.996h-53.771c-8.284 0-15 6.716-15 15v276.01c0 8.284 6.716 15 15 15h421.997c8.284 0 15-6.716 15-15v-276.01c-.001-8.284-6.717-15-15.001-15zm-225.998 276.01h-180.998v-30.004h150.998c16.542 0 30 13.458 30 30zm0-51.932c-8.833-5.123-19.075-8.072-30-8.072h-150.998v-186.006h50.293c9.159 18.207 21.626 34.475 36.615 48.002h-41.905c-8.284 0-15 6.717-15 15 0 8.284 6.716 15 15 15h89.643c14.531 5.926 30.099 9.811 46.353 11.301v104.775zm-117.994-267.074c0-73.333 59.661-132.994 132.994-132.994s132.994 59.661 132.994 132.994c0 73.334-59.661 132.996-132.994 132.996s-132.994-59.662-132.994-132.996zm328.992 319.006h-180.998v-.004c0-16.542 13.458-30 30-30h150.998zm0-60.004h-150.998c-10.925 0-21.168 2.949-30 8.072v-104.775c16.254-1.49 31.822-5.375 46.353-11.301h89.644c8.284 0 15-6.716 15-15 0-8.283-6.716-15-15-15h-41.907c14.99-13.527 27.457-29.795 36.615-48.002h50.293z"/><path d="m406.996 343.996h-90.993c-8.284 0-15 6.716-15 15s6.716 15 15 15h90.993c8.284 0 15-6.716 15-15s-6.715-15-15-15z"/><path d="m90.005 358.996c0 8.284 6.716 15 15 15h90.993c8.284 0 15-6.716 15-15s-6.716-15-15-15h-90.993c-8.285 0-15 6.716-15 15z"/></g></svg>