<svg id="Capa_1" enable-background="new 0 0 512 512" height="512" viewBox="0 0 512 512" width="512" xmlns="http://www.w3.org/2000/svg"><g><path d="m328.829 90.065c-6.769-6.769-16.222-10.346-27.339-10.346-13.413 0-29.292 5.293-45.488 14.72-16.196-9.428-32.076-14.722-45.49-14.722-11.117 0-20.57 3.577-27.339 10.346-6.872 6.871-16.639 23.005-4.852 53.854 2.374 6.213 5.482 12.582 9.209 18.975-3.727 6.392-6.835 12.761-9.208 18.973-11.787 30.85-2.02 46.984 4.852 53.855 6.768 6.769 16.221 10.346 27.338 10.346 13.415 0 29.294-5.293 45.49-14.721 16.196 9.426 32.075 14.719 45.487 14.719 11.117 0 20.57-3.577 27.338-10.346 6.871-6.871 16.638-23.004 4.852-53.854-2.373-6.212-5.482-12.58-9.208-18.972 3.727-6.391 6.835-12.76 9.209-18.973 11.789-30.849 2.021-46.982-4.851-53.854zm-124.443 21.211c.991-.99 3.224-1.559 6.126-1.559 4.637 0 10.866 1.468 18.086 4.489-3.733 3.232-7.417 6.654-11.023 10.26-3.583 3.584-6.996 7.26-10.234 10.994-5.218-12.634-5.483-21.655-2.955-24.184zm68.827 34.404c5.518 5.518 10.606 11.329 15.121 17.213-4.516 5.883-9.604 11.695-15.122 17.213-5.769 5.77-11.558 10.795-17.211 15.125-5.653-4.33-11.443-9.357-17.213-15.126-5.877-5.878-10.887-11.651-15.155-17.212 4.268-5.561 9.278-11.334 15.155-17.212 5.77-5.77 11.56-10.796 17.214-15.126 5.653 4.33 11.442 9.355 17.211 15.125zm-62.701 70.386c-2.902 0-5.135-.568-6.125-1.559-2.529-2.529-2.264-11.549 2.955-24.184 3.238 3.734 6.65 7.41 10.233 10.994 3.605 3.605 7.289 7.026 11.022 10.26-7.219 3.022-13.447 4.489-18.085 4.489zm95.144-23.495c4.847 12.685 3.827 20.067 1.96 21.935-.991.99-3.224 1.559-6.125 1.559-4.636 0-10.865-1.467-18.083-4.487 3.731-3.233 7.415-6.654 11.019-10.259 3.605-3.605 7.038-7.305 10.294-11.064.323.776.642 1.551.935 2.316zm-11.23-68.104c-3.604-3.604-7.288-7.026-11.02-10.26 7.219-3.02 13.448-4.487 18.084-4.487 2.903 0 5.136.568 6.126 1.559 1.868 1.868 2.887 9.25-1.96 21.935-.292.766-.612 1.541-.937 2.318-3.255-3.761-6.687-7.46-10.293-11.065z"/><path d="m466.998 205.99h-53.771c3.752-13.704 5.767-28.118 5.767-42.996 0-89.875-73.119-162.994-162.994-162.994s-162.994 73.119-162.994 162.994c0 14.878 2.015 29.292 5.767 42.996h-53.771c-8.284 0-15 6.716-15 15v276.01c0 8.284 6.716 15 15 15h421.997c8.284 0 15-6.716 15-15v-276.01c-.001-8.284-6.717-15-15.001-15zm-225.998 276.01h-180.998v-30.004h150.998c16.542 0 30 13.458 30 30zm0-51.932c-8.832-5.123-19.075-8.072-30-8.072h-150.998v-186.006h50.293c9.159 18.207 21.626 34.475 36.615 48.002h-41.905c-8.284 0-15 6.717-15 15 0 8.284 6.716 15 15 15h89.643c14.531 5.926 30.099 9.811 46.353 11.301v104.775zm-117.994-267.074c0-73.333 59.661-132.994 132.994-132.994s132.994 59.661 132.994 132.994c0 73.334-59.661 132.996-132.994 132.996s-132.994-59.662-132.994-132.996zm328.992 319.006h-180.998v-.004c0-16.542 13.458-30 30-30h150.998zm0-60.004h-150.998c-10.925 0-21.168 2.949-30 8.072v-104.775c16.254-1.49 31.822-5.375 46.353-11.301h89.644c8.284 0 15-6.716 15-15 0-8.283-6.716-15-15-15h-41.907c14.99-13.527 27.457-29.795 36.615-48.002h50.293z"/><path d="m406.996 343.996h-90.993c-8.284 0-15 6.716-15 15s6.716 15 15 15h90.993c8.284 0 15-6.716 15-15s-6.715-15-15-15z"/><path d="m90.005 358.996c0 8.284 6.716 15 15 15h90.993c8.284 0 15-6.716 15-15s-6.716-15-15-15h-90.993c-8.285 0-15 6.716-15 15z"/></g></svg>