<svg id="Capa_1" enable-background="new 0 0 512 512" height="512" viewBox="0 0 512 512" width="512" xmlns="http://www.w3.org/2000/svg"><g><path d="m466.998 205.99h-53.771c3.752-13.704 5.767-28.118 5.767-42.996 0-89.875-73.119-162.994-162.994-162.994-89.876 0-162.994 73.119-162.994 162.994 0 14.878 2.015 29.292 5.767 42.996h-53.771c-8.285 0-15 6.716-15 15v276.01c0 8.284 6.715 15 15 15h421.997c8.284 0 15-6.716 15-15v-276.01c-.001-8.284-6.717-15-15.001-15zm-225.998 276.01h-180.998v-30.004h150.998c16.542 0 30 13.458 30 30zm0-51.932c-8.832-5.123-19.075-8.072-30-8.072h-150.998v-186.006h50.293c9.159 18.207 21.626 34.475 36.615 48.002h-41.905c-8.284 0-15 6.717-15 15 0 8.284 6.716 15 15 15h89.643c14.53 5.926 30.099 9.811 46.352 11.301zm-117.994-267.074c0-73.333 59.661-132.994 132.994-132.994s132.994 59.661 132.994 132.994c0 73.334-59.661 132.996-132.994 132.996s-132.994-59.662-132.994-132.996zm328.992 319.006h-180.998v-.004c0-16.542 13.458-30 30-30h150.998zm0-60.004h-150.998c-10.925 0-21.168 2.949-30 8.072v-104.775c16.254-1.49 31.822-5.375 46.353-11.301h89.644c8.284 0 15-6.716 15-15 0-8.283-6.716-15-15-15h-41.907c14.99-13.527 27.457-29.795 36.615-48.002h50.293z"/><path d="m406.996 343.996h-90.993c-8.284 0-15 6.716-15 15s6.716 15 15 15h90.993c8.284 0 15-6.716 15-15s-6.715-15-15-15z"/><path d="m90.005 358.996c0 8.284 6.716 15 15 15h90.993c8.284 0 15-6.716 15-15s-6.716-15-15-15h-90.993c-8.285 0-15 6.716-15 15z"/><path d="m256 147.998c-27.47 0-45 32.575-45 55.001 0 13.171 5.919 23.617 16.665 29.414 7.063 3.811 16.067 5.585 28.335 5.585 12.269 0 21.272-1.774 28.335-5.585 10.747-5.797 16.665-16.243 16.665-29.414 0-22.426-17.53-55.001-45-55.001zm14.637 57.648c-.022.023-2.264 2.352-14.637 2.352-12.374 0-14.615-2.328-14.623-2.334-.098-.157-.377-.983-.377-2.665 0-10.792 9.435-25.001 15-25.001s15 14.209 15 25.001c0 1.682-.279 2.508-.363 2.647z"/><circle cx="196.06" cy="131.89" r="15"/><circle cx="315.94" cy="131.89" r="15"/><circle cx="256" cy="102.99" r="15"/></g></svg>