<svg id="Capa_1" enable-background="new 0 0 515.34 515.34" height="512" viewBox="0 0 515.34 515.34" width="512" xmlns="http://www.w3.org/2000/svg"><g><path d="m356.612 192.211v-129.725c0-8.284-6.716-15-15-15h-135.49v-2.486c0-24.813-20.186-45-45-45-24.813 0-45 20.187-45 45v2.486h-44.91c-24.813 0-45 20.186-45 45v319.854c0 24.814 20.186 45 45 45h181.884c7.725 33.19 37.525 57.999 73.032 57.999 89.879 0 163-73.121 163-163 0-79.46-57.157-145.812-132.516-160.128zm-210.49-147.211c0-8.271 6.729-15 15-15s15 6.729 15 15v114.229c-4.796-1.238-9.822-1.898-15-1.898s-10.204.66-15 1.898zm15 142.33c16.542 0 30 13.458 30 30 0 12.971-11.036 33.304-23.317 48.078-5.165-7.414-11.945-12.998-17.968-17.959-11.952-9.845-18.715-16.098-18.715-30.119 0-16.542 13.458-30 30-30zm90.006 225.008v15.003h-179.916c-8.271 0-15-6.728-15-15 0-8.271 6.729-15 15-15h182.499c-1.667 4.695-2.583 9.741-2.583 14.997zm-179.916-44.997c-5.259 0-10.306.915-15 2.581v-277.436c0-8.271 6.729-15 15-15h44.91v100.221c-9.325 10.578-15 24.447-15 39.623 0 28.861 17.133 42.973 29.643 53.275 11.145 9.181 15.357 13.433 15.357 21.727 0 5.566 3.083 10.676 8.008 13.271 2.196 1.157 4.597 1.729 6.991 1.729 2.975 0 5.938-.884 8.482-2.628 21.006-14.4 51.518-55.598 51.518-87.374 0-15.176-5.675-29.045-15-39.623v-100.221h120.49v111.859c-.162 0-.322-.006-.484-.006-41.355 0-75 33.645-75 75v27.992c0 24.613 19.861 44.675 44.399 44.996.199.008.399.012.601.012h12.069c8.271 0 15 6.728 15 15 0 8.271-6.729 15-15 15h-12.185c-.012 0-.023.001-.035.001h-224.764zm254.916 117.999c-24.814 0-45-20.187-45-45v-28.002c0-8.242 6.702-14.967 14.904-14.997h.02v-.001h12.146c24.814 0 45-20.187 45-45 0-24.814-20.186-45-45-45h-11.58c-.162-.005-.325-.008-.489-.008-8.271 0-15-6.729-15-15v-27.992c0-24.814 20.186-45 45-45 73.337 0 133 59.664 133 133-.001 73.337-59.664 133-133.001 133z"/><circle cx="326.13" cy="262.17" r="15"/><circle cx="385.46" cy="287.506" r="15"/><circle cx="414.13" cy="350.17" r="15"/><circle cx="385.46" cy="414.84" r="15"/><circle cx="326.13" cy="438.17" r="15"/></g></svg>