<svg id="Capa_1" enable-background="new 0 0 512.04 512.04" height="512" viewBox="0 0 512.04 512.04" width="512" xmlns="http://www.w3.org/2000/svg"><g><path d="m506.711 456.426c-2.779-2.393-10.713-10.939-10.713-18.569 0-7.629 7.934-16.177 10.644-18.511 3.462-2.906 5.346-7.142 5.346-11.489h.011v-363.674c0-8.284-6.716-15-15-15h-421.996c-24.813 0-45 20.187-45 45v54.328h-15.003c-8.284 0-15 6.716-15 15s6.716 15 15 15h15.003v60.01h-15.003c-8.284 0-15 6.716-15 15s6.716 15 15 15h15.003v60.008h-15.003c-8.284 0-15 6.716-15 15s6.716 15 15 15h15.003v99.328c0 24.814 20.187 45 45 45h421.995c6.306 0 11.972-3.914 14.129-9.839s.413-12.538-4.416-16.592zm-38.011-3.569h-393.697c-8.271 0-15-6.728-15-15 0-8.271 6.729-15 15-15h393.697c-1.646 4.586-2.702 9.623-2.702 15s1.057 10.414 2.702 15zm13.298-60h-406.995c-5.258 0-10.305.915-15 2.58v-56.908h15.003c8.284 0 15-6.716 15-15s-6.716-15-15-15h-15.003v-60.008h15.003c8.284 0 15-6.716 15-15s-6.716-15-15-15h-15.003v-60.01h15.003c8.284 0 15-6.716 15-15s-6.716-15-15-15h-15.003v-54.328c0-8.271 6.729-15 15-15h406.995z"/><path d="m192.963 347.851c0 8.284 6.716 15 15 15h126.075c8.284 0 15-6.716 15-15v-84.459c11.401-13.82 43.295-56.672 43.295-103.537 0-38.966-31.701-70.666-70.667-70.666h-101.331c-38.967 0-70.668 31.7-70.668 70.666 0 46.865 31.894 89.716 43.296 103.536zm126.075-15h-96.075v-60.008h96.075zm-139.371-172.996c0-22.423 18.243-40.666 40.668-40.666h101.331c22.424 0 40.667 18.243 40.667 40.666 0 35.44-25.195 70.413-35.277 82.988h-12.756l6.413-32.064c1.624-8.123-3.644-16.025-11.768-17.65-8.128-1.624-16.025 3.645-17.65 11.768l-7.589 37.947h-25.41l-7.59-37.947c-1.625-8.123-9.527-13.391-17.65-11.768-8.124 1.625-13.392 9.527-11.768 17.65l6.412 32.064h-12.755c-10.083-12.575-35.278-47.548-35.278-82.988z"/></g></svg>