<svg id="Capa_1" enable-background="new 0 0 511.998 511.998" height="512" viewBox="0 0 511.998 511.998" width="512" xmlns="http://www.w3.org/2000/svg"><g><path d="m466.002 181.966-17.572-.001c-6.191-17.461-22.874-30-42.43-30s-36.239 12.539-42.43 30.001l-62.572-.001v-15c0-19.555-12.542-36.227-30-42.42v-34.545h60c8.284 0 15-6.716 15-15v-60c0-8.284-6.716-15-15-15h-74.999c-8.284 0-15 6.716-15 15v109.545c-17.459 6.192-30 22.865-30 42.42v15h-62.572c-6.191-17.461-22.873-30-42.43-30-19.556 0-36.239 12.539-42.43 30.001h-17.571c-8.284 0-15 6.716-15 15v300.032c0 8.284 6.716 15 15 15h420.006c8.284 0 15-6.716 15-15v-300.032c0-8.284-6.715-15-15-15zm-105.003 180.021v-60.503h30.001v60.503zm-180 105.006c0-8.272 6.729-15 15-15s15 6.728 15 15v15.005h-30zm60 0c0-8.272 6.729-15 15-15s15 6.728 15 15v15.005h-30zm60 0c0-8.272 6.729-15 15-15s15 6.728 15 15v15.005h-30zm30-42.42c-4.695-1.665-9.742-2.58-15-2.58-11.517 0-22.032 4.353-30 11.495-7.968-7.142-18.483-11.495-30-11.495s-22.032 4.353-30 11.495c-7.968-7.142-18.483-11.495-30-11.495-5.258 0-10.305.915-15 2.58v-32.586h150zm-270.003-62.586v-60.503h30.001v60.503zm60.002-60.503h30.002v60.503h-30.002zm60.001 0h30v60.503h-30zm150-89.519v59.52h-60v-15.003c0-8.284-6.716-15-15-15s-15 6.716-15 15v15.003h-60v-59.519zm-90 150.022v-60.503h30v60.503zm60 0v-60.503h30v60.503zm120.001-60.503h30.001v60.503h-30.001zm-45-89.519c8.284 0 15-6.715 15-15 0-8.271 6.729-15 15-15s15 6.73 15 15.001c0 8.284 6.716 15 15 15h15.001v59.519h-30.001v-15.003c0-8.284-6.716-15-15-15s-15 6.716-15 15v15.003h-30.001v-59.52zm-105.001-181.965h45v30h-45zm-30 136.965c0-8.271 6.729-15 15-15s15 6.729 15 15v15h-30zm-165.001 45c8.284 0 14.999-6.715 14.999-15 0-8.271 6.729-15 15-15s15 6.73 15 15.001c0 3.979 1.581 7.794 4.394 10.606 2.813 2.813 6.628 4.394 10.606 4.394h15.002v59.519h-30.002v-15.003c0-8.284-6.716-15-15-15s-15 6.716-15 15v15.003h-30.001v-59.52zm-15.002 180.022h90.003v90.011h-30.002v-15.004c0-8.284-6.716-15-15-15s-15 6.716-15 15v15.004h-30.001zm360.004 90.011v-15.004c0-8.284-6.716-15-15-15s-15 6.716-15 15v15.004h-30.001v-90.011h90.003v90.011z"/></g></svg>