<svg id="Capa_1" enable-background="new 0 0 511.998 511.998" height="512" viewBox="0 0 511.998 511.998" width="512" xmlns="http://www.w3.org/2000/svg"><g><path d="m406.002 212.006h-45.003v-45.006c0-33.077-26.505-68.531-60-82.666v-19.333c0-19.555-12.542-36.228-30-42.419v-7.582c0-8.284-6.716-15-15-15s-15 6.716-15 15v7.582c-17.458 6.191-30 22.864-30 42.419v19.333c-33.495 14.135-60 49.589-60 82.666v45.006h-45.003c-8.284 0-15 6.716-15 15v269.992c0 8.284 6.716 15 15 15h300.006c8.284 0 15-6.716 15-15v-269.992c0-8.284-6.716-15-15-15zm-135.003 269.992h-30v-29.991c0-8.272 6.729-15 15-15s15 6.728 15 15zm-15-74.991c-24.813 0-45 20.186-45 45v29.991h-30.003v-104.997h150.006v104.997h-30.003v-29.991c0-24.814-20.187-45-45-45zm-135.003-30.006h30v32.586c-4.695-1.665-9.742-2.58-15-2.58s-10.305.915-15 2.58zm180.006-134.995v104.995h-90.006v-104.995zm60 134.995h30v32.586c-4.695-1.665-9.742-2.58-15-2.58s-10.305.915-15 2.58zm30-97.497h-14.996c-8.284 0-15 6.716-15 15s6.716 15 15 15h14.996v37.497h-60v-104.995h60zm-135.003-229.503c8.271 0 15 6.729 15 15v14.997h-30v-14.997c0-8.272 6.729-15 15-15zm-27.924 59.997h55.849c20.49 6.189 37.292 24.637 43.967 42.002h-143.784c6.676-17.365 23.477-35.812 43.968-42.002zm-47.076 72.002h150v30.006h-150zm-.003 60.006v104.995h-60v-37.497h14.996c8.284 0 15-6.716 15-15s-6.716-15-15-15h-14.996v-37.498zm-60 210.001c0-8.272 6.729-15 15-15s15 6.728 15 15v29.991h-30zm270.006 29.991h-30v-29.991c0-8.272 6.729-15 15-15s15 6.728 15 15z"/><path d="m255.999 316.995c8.284 0 15-6.716 15-15v-14.983c0-8.284-6.716-15-15-15s-15 6.716-15 15v14.983c0 8.284 6.716 15 15 15z"/></g></svg>