<svg id="Capa_1" enable-background="new 0 0 511.999 511.999" height="512" viewBox="0 0 511.999 511.999" width="512" xmlns="http://www.w3.org/2000/svg"><g><path d="m507.605 307.399-60.005-60.006c-2.813-2.813-6.628-4.393-10.606-4.393h-90.994v-16.015c0-19.556-12.541-36.227-30-42.42v-7.582c0-8.284-6.716-15-15-15s-15 6.716-15 15v7.582c-17.459 6.192-30 22.864-30 42.42v16.015h-90.995c-3.979 0-7.794 1.579-10.607 4.393l-34.396 34.398v-176.782c0-3.245-1.053-6.403-3-8.999l-42.001-56.008v-25.002c0-8.285-6.716-15-15-15s-15 6.715-15 15v25.002l-42.001 56.008c-1.947 2.596-3 5.754-3 8.999v391.989c0 8.283 6.716 15 15 15h481.999c8.284 0 15-6.717 15-15v-178.993c0-3.978-1.58-7.794-4.394-10.606zm-86.593 54.583c-8.284 0-15 6.716-15 15v15.005h-30.006v-15.005c0-8.284-6.716-15-15-15s-15 6.716-15 15v15.005h-30.006v-15.005c0-8.284-6.716-15-15-15s-15 6.716-15 15v15.005h-30.005v-15.005c0-8.284-6.716-15-15-15s-15 6.716-15 15v15.005h-30.003v-15.005c0-8.284-6.716-15-15-15s-15 6.716-15 15v15.005h-45.99v-58.981h361.997v58.981h-45.987v-15.005c0-8.284-6.716-15-15-15zm-135.012-134.996c0-8.271 6.728-15 15-15s15 6.729 15 15v16.015h-30zm-114.782 46.014h259.562l30.006 30.005h-319.572zm-141.218-112.988h60.002v40.007h-60.002zm30.001-90.008 30.001 40.005v20.003h-60.002v-20.003zm-30.001 160.015h60.002v251.98h-60.002zm406.012 251.98v-15.006c0-8.284-6.716-15-15-15s-15 6.716-15 15v15.006h-30.006v-15.006c0-8.284-6.716-15-15-15s-15 6.716-15 15v15.006h-30.006v-15.006c0-8.284-6.716-15-15-15s-15 6.716-15 15v15.006h-30.005v-15.006c0-8.284-6.716-15-15-15s-15 6.716-15 15v15.006h-30.003v-15.006c0-8.284-6.716-15-15-15s-15 6.716-15 15v15.006h-45.99v-60.012h361.997v60.012z"/></g></svg>