<svg id="Capa_1" enable-background="new 0 0 511.998 511.998" height="512" viewBox="0 0 511.998 511.998" width="512" xmlns="http://www.w3.org/2000/svg"><g><path d="m496.998 409.494h-13.002v-12.501c0-8.284-6.716-15-15-15h-10.49v-190.64l28.937-28.082c2.911-2.825 4.554-6.708 4.554-10.765v-52.503c0-8.284-6.716-15-15-15h-35.232l-180.407-69.013c-3.451-1.32-7.268-1.32-10.719 0l-180.406 69.013h-35.231c-8.284 0-15 6.716-15 15v52.666c0 4.069 1.653 7.964 4.581 10.791l28.909 27.915v190.617h-10.49c-8.284 0-15 6.716-15 15v12.501h-13.002c-8.284 0-15 6.716-15 15v57.505c0 8.283 6.716 15 15 15h481.998c8.284 0 15-6.717 15-15v-57.505c0-8.284-6.716-14.999-15-14.999zm-113.499-27.501v-181.986h45.007v181.985h-45.007zm-75 0v-99.479c0-12.406 10.094-22.5 22.5-22.5s22.5 10.094 22.5 22.5v99.479zm-75 0v-99.479c0-12.406 10.094-22.5 22.5-22.5s22.5 10.094 22.5 22.5v99.479zm-75 0v-99.479c0-12.406 10.094-22.5 22.5-22.5s22.5 10.094 22.5 22.5v99.479zm195-146.904c-6.824-3.251-14.452-5.076-22.5-5.076s-15.676 1.825-22.5 5.076v-35.082h45zm-75 0c-6.824-3.251-14.452-5.076-22.5-5.076s-15.676 1.825-22.5 5.076v-35.082h45zm-75 0c-6.824-3.251-14.452-5.076-22.5-5.076s-15.676 1.825-22.5 5.076v-35.082h45zm52.5-189.029 101.801 38.943h-203.602zm-205.997 68.943h411.994v31.157l-24.572 23.847h-53.925v-9.996c0-8.284-6.716-15-15-15s-15 6.716-15 15v9.996h-45v-9.996c0-8.284-6.716-15-15-15s-15 6.716-15 15v9.996h-45v-9.996c0-8.284-6.716-15-15-15s-15 6.716-15 15v9.996h-45v-9.996c0-8.284-6.716-15-15-15s-15 6.716-15 15v9.996h-53.947l-24.55-23.705zm33.49 85.004h45.007v181.985h-45.007zm398.506 266.992h-451.998v-27.505h13.002c8.284 0 15-6.716 15-15v-12.501h395.994v12.501c0 8.284 6.716 15 15 15h13.002z"/></g></svg>