<svg id="Capa_1" enable-background="new 0 0 511.998 511.998" height="512" viewBox="0 0 511.998 511.998" width="512" xmlns="http://www.w3.org/2000/svg"><g><path d="m455.997 331.981h-5.002v-90.011h5.002c8.284 0 15-6.716 15-15s-6.716-15-15-15h-5.002v-75.98c0-8.283-6.715-15-14.999-15v-.001c0-27.905-19.151-51.424-45-58.102v-12.886h5.002c8.284 0 15-6.716 15-15s-6.716-15-15-15h-5.002v-5.001c0-8.284-6.716-15-15-15s-15 6.716-15 15v5.001h-5.002c-8.284 0-15 6.716-15 15s6.716 15 15 15h5.002v12.887c-25.849 6.678-45 30.196-45 58.102v.001c-8.284 0-14.999 6.717-14.999 15v81.738l-29.998-15.002v-20.732c0-8.284-6.717-15-15-15-8.284 0-15 6.716-15 15v20.732l-29.998 15.002v-81.739c0-8.283-6.715-15-14.999-15v-.001c0-27.905-19.151-51.424-45-58.102v-12.886h5.002c8.284 0 15-6.716 15-15s-6.716-15-15-15h-5.002v-5.001c0-8.284-6.716-15-15-15s-15 6.716-15 15v5.001h-5.002c-8.284 0-15 6.716-15 15s6.716 15 15 15h5.002v12.887c-25.849 6.678-45 30.196-45 58.102v.001c-8.284 0-14.999 6.717-14.999 15v75.979h-5.002c-8.285 0-15 6.716-15 15s6.715 15 15 15h5.002v90.012h-5.002c-8.285 0-15 6.716-15 15s6.715 15 15 15h5.002v135.017c0 8.283 6.716 15 15 15h359.992c8.284 0 15-6.717 15-15v-135.018h5.002c8.284 0 15-6.716 15-15s-6.716-15-15-15zm-349.995-210.992c0-16.542 13.458-30 30-30s30 13.458 30 30v.001zm74.999 361.009h-29.999v-15.005c0-8.284-6.716-15-15-15s-15 6.716-15 15v15.005h-29.999v-120.017h89.998zm0-150.017h-89.998v-90.011h89.998zm0-120.011h-29.999v-14.975c0-8.284-6.716-15-15-15s-15 6.716-15 15v14.975h-29.999v-60.98h89.998zm119.996 270.028h-29.998v-15.005c0-8.284-6.717-15-15-15-8.284 0-15 6.716-15 15v15.005h-29.998v-120.017h89.996zm0-150.017h-29.998v-15.003c0-8.284-6.717-15-15-15-8.284 0-15 6.716-15 15v15.003h-29.998v-80.711l44.998-22.502 44.998 22.502zm44.999-210.992c0-16.542 13.458-30 30-30s30 13.458 30 30v.001zm74.999 361.009h-29.999v-15.005c0-8.284-6.716-15-15-15s-15 6.716-15 15v15.005h-29.999v-120.017h89.998zm0-150.017h-89.998v-90.011h89.998zm0-120.011h-29.999v-14.975c0-8.284-6.716-15-15-15s-15 6.716-15 15v14.975h-29.999v-60.98h89.998z"/><circle cx="135.999" cy="406.988" r="15"/><circle cx="255.999" cy="406.988" r="15"/><circle cx="375.499" cy="406.988" r="15"/><circle cx="135.999" cy="286.978" r="15"/><circle cx="375.499" cy="286.978" r="15"/></g></svg>