<svg id="Capa_1" enable-background="new 0 0 513.001 513.001" height="512" viewBox="0 0 513.001 513.001" width="512" xmlns="http://www.w3.org/2000/svg"><g><path d="m437.788 397.559c-.31 0-.62.014-.93.018v-47.935c32.047-6.907 56.142-35.454 56.142-69.536 0-28.333-18.569-139.198-71.142-139.198s-71.142 110.865-71.142 139.198c0 34.082 24.095 62.629 56.141 69.536v40.116c-17.273-17.892-41.205-28.322-66.987-28.322-12.405 0-24.591 2.482-35.872 7.18v-251.28l11.066 6.899c2.469 1.54 5.211 2.273 7.922 2.273 5.006 0 9.899-2.506 12.743-7.066 4.383-7.029 2.237-16.281-4.792-20.664l-154-96.013c-4.857-3.029-11.015-3.029-15.872 0l-153.999 96.013c-7.03 4.383-9.176 13.635-4.792 20.664 4.383 7.031 13.636 9.176 20.665 4.793l11.066-6.899v311.662l-26.7 15.967c-4.529 2.709-7.301 7.598-7.301 12.874v39.669c0 8.284 6.716 15 15 15h482.998c8.284 0 15-6.716 15-15v-24.735c-.001-41.473-33.741-75.214-75.214-75.214zm-57.071-117.453c0-14.615 5.114-44.334 13.671-68.768 9.781-27.93 20.845-40.431 27.471-40.431s17.69 12.501 27.471 40.431c8.556 24.434 13.67 54.153 13.67 68.768 0 22.685-18.456 41.142-41.142 41.142-22.685 0-41.141-18.456-41.141-41.142zm-196.716 142.399v-74.996c0-8.284-6.716-15-15-15h-104.997v-30.002h209.994v30.002h-44.998c-8.284 0-15 6.716-15 15v74.996zm-59.998 0v-59.996h29.998v59.996zm-59.999 0v-59.996h29.999v59.996zm119.997-149.998v-59.996h29.999v59.996zm59.999-59.996h29.999v59.996h-29.999zm29.998-30h-104.997c-8.284 0-15 6.716-15 15v74.996h-29.998v-74.996c0-8.284-6.716-15-15-15h-44.999v-30.006h209.994zm-209.994 89.996v-59.996h29.999v59.996zm179.996 90.002h29.999v59.996h-29.999zm-74.999-329.338 104.997 65.461v23.873h-209.994v-23.873zm142.999 449.337h-281.997v-16.162l23.145-13.841h232.145l26.707 14.057zm171.001 0h-141.001v-25.001c0-5.569-3.085-10.68-8.014-13.273l-29.988-15.784v-25.85c10.5-7.228 23.009-11.164 35.872-11.164 24.008 0 45.659 13.338 56.504 34.81 1.814 3.593 4.995 6.304 8.829 7.527 3.832 1.222 7.997.856 11.557-1.022 6.535-3.445 13.609-5.192 21.029-5.192 24.931 0 45.213 20.282 45.213 45.213v9.736z"/></g></svg>