<svg id="Capa_1" enable-background="new 0 0 511.998 511.998" height="512" viewBox="0 0 511.998 511.998" width="512" xmlns="http://www.w3.org/2000/svg"><g><path d="m459 267.417v-.425c0-36.445-9.639-71.771-27.971-102.884 4.655-6.895 7.314-14.963 7.624-23.482.435-12.013-3.833-23.475-12.019-32.276-21.574-23.197-47.134-41.468-75.97-54.307-29.887-13.306-61.737-20.053-94.665-20.053s-64.777 6.747-94.665 20.053c-28.836 12.839-54.396 31.11-75.97 54.307-8.186 8.802-12.455 20.264-12.019 32.276.309 8.519 2.968 16.586 7.623 23.481-18.332 31.112-27.971 66.439-27.971 102.885v.425c-29.794 3.481-52.997 28.865-52.997 59.579v91.009c0 33.086 26.917 60.003 60.002 60.003h30.994c24.813 0 45-20.187 45-45v-121.014c0-24.814-20.187-45-45-45h-7.998v-.002c0-30.001 7.658-59.104 22.248-84.935 4.193 1.27 8.584 1.938 13.059 1.938h.006c12.461-.002 24.474-5.233 32.957-14.354 27.38-29.439 64.574-45.652 104.732-45.652s77.352 16.213 104.732 45.652c8.484 9.122 20.497 14.354 32.958 14.354 4.476 0 8.868-.669 13.062-1.939 14.59 25.832 22.248 54.935 22.248 84.936v.002h-7.998c-24.813 0-45 20.186-45 45v121.014c0 24.813 20.187 45 45 45h30.994c33.085 0 60.002-26.917 60.002-60.003v-91.009c0-30.714-23.203-56.098-52.998-59.579zm-368.004 29.577c8.271 0 15 6.729 15 15v121.014c0 8.27-6.729 15-15 15h-30.994c-16.543 0-30.002-13.459-30.002-30.003v-91.009c0-16.543 13.459-30.002 30.002-30.002zm312.902-147.014c-2.785 2.59-6.41 4.016-10.209 4.016-4.218 0-8.121-1.699-10.991-4.785-33.119-35.609-78.115-55.221-126.7-55.221s-93.581 19.611-126.7 55.221c-2.869 3.085-6.773 4.784-10.993 4.785-3.796 0-7.422-1.426-10.207-4.016-2.934-2.729-4.63-6.438-4.775-10.441-.145-4.004 1.277-7.824 4.006-10.758 18.807-20.222 41.082-36.147 66.205-47.332 26.022-11.585 53.767-17.459 82.463-17.459s56.441 5.874 82.462 17.459c25.124 11.185 47.398 27.11 66.206 47.332 2.729 2.934 4.151 6.754 4.006 10.758-.143 4.004-1.839 7.712-4.773 10.441zm78.1 268.025c0 16.544-13.459 30.003-30.002 30.003h-30.994c-8.271 0-15-6.73-15-15v-121.014c0-8.271 6.729-15 15-15h30.994c16.543 0 30.002 13.459 30.002 30.002z"/><path d="m330.999 295.418h-45c-11.517 0-22.032 4.354-30 11.495-7.968-7.142-18.483-11.495-30-11.495h-45c-8.284 0-15 6.716-15 15v124.167c0 8.284 6.716 15 15 15h150c8.284 0 15-6.716 15-15v-124.167c0-8.284-6.716-15-15-15zm-90 124.167h-45v-94.167h30c8.271 0 15 6.729 15 15zm75 0h-45v-79.167c0-8.271 6.729-15 15-15h30z"/></g></svg>