<svg id="Capa_1" enable-background="new 0 0 511.998 511.998" height="512" viewBox="0 0 511.998 511.998" width="512" xmlns="http://www.w3.org/2000/svg"><g><path d="m449.332 75.79c-32.753 0-56.897 30.073-59.543 33.502-5.06 6.56-3.845 15.979 2.715 21.039 6.558 5.058 15.978 3.844 21.039-2.715 4.368-5.662 20.318-21.826 35.789-21.826 18.012 0 32.666 14.654 32.666 32.666v163.983c-12.539-43.956-53.068-76.231-100.994-76.231-32.075 0-60.831 14.46-80.107 37.197-9.164-9.292-23.45-17.952-44.898-17.952-21.45 0-35.736 8.661-44.901 17.953-19.275-22.738-48.031-37.198-80.104-37.198-47.925 0-88.454 32.275-100.993 76.231v-163.983c0-18.012 14.654-32.666 32.666-32.666 20.25 0 37.768 13.951 38.147 14.256 6.381 5.24 15.804 4.337 21.074-2.028 5.282-6.382 4.39-15.838-1.991-21.12-1.041-.861-25.864-21.107-57.23-21.107-34.555-.001-62.667 28.111-62.667 62.665v192.752c0 8.284 6.716 15 15 15h12.069c7.301 50.816 51.119 90 103.924 90 23.55 0 45.313-7.793 62.849-20.938l.143.143c2.929 2.929 6.768 4.394 10.606 4.394s7.678-1.465 10.606-4.394c5.858-5.857 5.858-15.355 0-21.213l-.142-.143c13.143-17.535 20.938-39.299 20.938-62.85 0-14.494-2.952-28.311-8.287-40.882 3.7-5.848 12.039-14.873 28.292-14.873 16.224 0 24.538 8.923 28.284 14.88-5.332 12.57-8.283 26.385-8.283 40.875 0 23.563 7.802 45.336 20.958 62.875l-.117.116c-5.857 5.857-5.858 15.355-.001 21.214 2.93 2.929 6.769 4.394 10.607 4.394s7.678-1.465 10.607-4.392l.124-.125c17.531 13.132 39.286 20.918 62.826 20.918 52.805 0 96.624-39.184 103.925-90h12.069c8.284 0 15-6.716 15-15v-192.751c.001-34.554-28.111-62.666-62.665-62.666zm-393.339 255.418c0-41.355 33.645-75 75-75s75 33.645 75 75-33.645 75-75 75-75-33.644-75-75zm325.011 75c-41.357 0-75.004-33.645-75.004-75s33.647-75 75.004-75c41.355 0 75.001 33.645 75.001 75s-33.646 75-75.001 75z"/></g></svg>