<svg id="Capa_1" enable-background="new 0 0 511.998 511.998" height="512" viewBox="0 0 511.998 511.998" width="512" xmlns="http://www.w3.org/2000/svg"><g><path d="m164.999 180.008h181.984c8.284 0 15-6.716 15-15v-90.008c0-8.284-6.716-15-15-15h-181.984c-8.284 0-15 6.716-15 15v90.008c0 8.284 6.716 15 15 15zm136.979-90.008h30.006v60.008h-30.006zm-121.979 0h91.979v60.008h-91.979z"/><path d="m511.905 428.256-18.338-164.281c-2.161-19.343-13.907-45.955-26.741-60.587l-44.843-51.124v-137.264c0-8.284-6.716-15-15-15h-256.984c-33.084 0-60 26.916-60 60v92.283l-44.826 51.104c-12.835 14.632-24.581 41.245-26.742 60.589l-18.338 164.28c-.062.553-.093 1.108-.093 1.664v67.078c0 8.284 6.716 15 15 15h100.01c8.284 0 15-6.716 15-15v-47.657h251.979v47.657c0 8.284 6.716 15 15 15h100.01c8.284 0 15-6.716 15-15v-67.078c-.001-.556-.032-1.111-.094-1.664zm-361.906-398.256h241.984l.007 236.781-6.36-6.361c-8.5-8.499-19.8-13.18-31.819-13.18-12.018 0-23.319 4.681-31.82 13.181-14.949 14.952-17.933 38.661-7.786 61.874 4.197 9.604 11.533 22.883 19.927 37.04h-156.264c8.395-14.157 15.729-27.438 19.928-37.041 10.145-23.214 7.16-46.923-7.789-61.874-8.5-8.499-19.801-13.18-31.819-13.18-12.02 0-23.319 4.681-31.819 13.181l-6.36 6.36-.01-206.781c0-16.542 13.458-30 30-30zm-47.411 391.513c-1.681 2.482-2.578 5.41-2.578 8.407v52.078h-70.01v-51.243l18.245-163.448c1.495-13.386 10.599-34.01 19.481-44.137l22.282-25.403v105.227c0 6.067 3.654 11.536 9.26 13.858 5.603 2.32 12.056 1.039 16.347-3.252l31.967-31.965c2.833-2.834 6.601-4.395 10.607-4.395s7.773 1.56 10.605 4.393c7.207 7.207 5.319 19.937 1.514 28.646-13.638 31.198-67.181 110.437-67.72 111.234zm37.48-2.172c5.513-8.386 12.314-18.853 19.364-30.006h193.133c7.05 11.152 13.852 21.62 19.364 30.006zm341.93 62.657h-70.01v-52.078c0-2.997-.898-5.926-2.578-8.407-.539-.797-54.082-80.036-67.718-111.233-3.807-8.71-5.695-21.438 1.512-28.645 2.833-2.834 6.601-4.395 10.606-4.395 4.006 0 7.774 1.56 10.607 4.393l31.967 31.966c4.29 4.291 10.744 5.574 16.347 3.252 5.605-2.322 9.26-7.791 9.26-13.858v-105.226l22.283 25.404c8.881 10.125 17.983 30.749 19.479 44.134l18.245 163.45z"/></g></svg>