<svg id="Capa_1" enable-background="new 0 0 512 512" height="512" viewBox="0 0 512 512" width="512" xmlns="http://www.w3.org/2000/svg"><g><path d="m508.336 172.927c-4.253-4.907-105.383-120.188-212.337-120.188-2.813 0-5.569.791-7.954 2.282l-32.045 20.042-32.045-20.041c-2.385-1.491-5.142-2.282-7.954-2.282-106.954 0-208.084 115.28-212.337 120.188-4.393 5.068-4.886 12.438-1.209 18.047.662 1.01 16.569 25.028 48.305 51.915 27.352 23.174 72.006 52.841 132.731 66.791v134.581c0 8.284 6.716 15 15 15h120c8.284 0 15-6.716 15-15v-135.766c59.028-14.588 102.44-43.932 129.038-66.706 30.883-26.445 46.371-49.833 47.016-50.816 3.677-5.61 3.184-12.979-1.209-18.047zm-260.29-67.454c4.867 3.043 11.041 3.043 15.908 0l36.233-22.661c63.471 2.181 127.328 53.234 161.049 84.938h-142.766c-13.696-18.219-35.483-30.024-59.979-30.024h-60c-8.284 0-15 6.716-15 15v15.024h-132.766c33.676-31.703 97.486-82.758 161.087-84.938zm-4.555 62.253v49.104c0 16.991-12.541 31.478-30 36.858v-85.962zm-172.5 52.98c-9.715-8.168-17.81-16.067-24.277-22.956h136.777v81.051c-51.024-13.072-88.895-38.246-112.5-58.095zm232.5 208.555h-90v-144.723c34.192-6.42 60-34.339 60-67.709v-46.523c17.459 6.192 30 22.864 30 42.42zm138.699-209.552c-22.852 19.42-59.443 44.178-108.699 57.768v-64.751c0-5.127-.521-10.135-1.505-14.976h133.299c-6.205 6.609-13.9 14.145-23.095 21.959z"/></g></svg>