<svg id="Capa_1" enable-background="new 0 0 511.999 511.999" height="512" viewBox="0 0 511.999 511.999" width="512" xmlns="http://www.w3.org/2000/svg"><g><path d="m496.999 454.908h-5.002v-39.999c0-8.284-6.716-15-15-15-42.126 0-68.451-7.069-93.909-13.905-21.254-5.707-41.329-11.098-67.089-11.098-24.508 0-46.305 11.817-60 30.052-13.694-18.234-35.492-30.052-59.999-30.052-13.182 0-24.871 1.416-35.995 3.56v-38.565c0-8.284-6.716-15-15-15h-21.747l-42.898-67.712c6.029-7.657 9.64-17.304 9.64-27.783 0-10.321-3.502-19.836-9.368-27.436l41.842-64.626 18.027 18.027c-3.184 16.386-5.78 50.792 20.107 76.68l14.142 14.142c2.813 2.813 6.628 4.394 10.606 4.394s7.794-1.58 10.607-4.394l17.68-17.68c11.697 11.696 27.06 17.544 42.424 17.544 15.365 0 30.73-5.849 42.427-17.546 23.393-23.394 23.394-61.457.002-84.852l17.679-17.679c2.813-2.813 4.394-6.628 4.394-10.606 0-3.979-1.581-7.794-4.394-10.608l-14.142-14.14c-25.889-25.889-60.295-23.292-76.679-20.108l-25.853-25.853c-11.333-11.333-26.4-17.574-42.426-17.574-16.027 0-31.094 6.241-42.427 17.574-11.332 11.331-17.573 26.398-17.573 42.426 0 8.973 1.959 17.644 5.669 25.527l-47.282 73.028c-3.359-.803-6.859-1.24-10.461-1.24-24.813 0-45 20.186-45 45s20.187 45 45 45c3.449 0 6.803-.403 10.031-1.141l32.713 51.636h-2.741c-8.284 0-15 6.716-15 15v58.192c-10.451 1.138-21.969 1.815-35.002 1.815-8.284 0-15 6.716-15 15v39.999h-5.001c-8.284 0-15 6.716-15 15s6.716 15 15 15h481.998c8.284 0 15-6.716 15-15 0-8.283-6.716-14.999-15-14.999zm-219.719-247.61c-11.697 11.695-30.728 11.696-42.424.002l42.427-42.428c11.694 11.698 11.693 30.729-.003 42.426zm-48.749-106.812c8.792-2.11 34.615-6.32 52.289 11.354l3.535 3.533-81.3 81.302c-.006.006-.012.01-.018.016s-.01.012-.016.018l-17.664 17.664-3.535-3.535c-17.456-17.456-13.367-43.472-11.309-52.333zm-92.671-34.608c5.667-5.666 13.201-8.787 21.214-8.787s15.546 3.12 21.213 8.787l21.213 21.213-42.426 42.427-21.213-21.214c-5.666-5.666-8.786-13.199-8.786-21.213-.001-8.014 3.119-15.547 8.785-21.213zm-105.86 163.528c0-8.271 6.729-15 15-15s15 6.729 15 15-6.729 15-15 15-15-6.728-15-15zm285.999 175.5c21.802 0 39.183 4.667 59.309 10.071 23.121 6.209 48.975 13.152 86.689 14.641v25.29h-190.998v-5.002-.01c.005-24.808 20.19-44.99 45-44.99zm-215.995-50.005h14.951c.021 0 .042.002.063.002.019 0 .038-.002.057-.002h14.929v30.81c-.365.098-.728.194-1.094.293-9.278 2.491-18.675 5.012-28.906 7.212zm-50.002 74.717c37.714-1.488 63.568-8.432 86.689-14.641 20.125-5.404 37.506-10.071 59.309-10.071 24.81 0 44.995 20.182 44.999 44.99v.01 5.002h-190.997z"/><path d="m241 291.147v20.002c0 8.284 6.716 15 15 15s15-6.716 15-15v-20.002c0-8.284-6.716-15-15-15-8.285 0-15 6.716-15 15z"/><path d="m319.64 271.001 14.143 14.143c2.929 2.929 6.768 4.393 10.606 4.393 3.839 0 7.678-1.465 10.607-4.393 5.858-5.857 5.858-15.355 0-21.213l-14.143-14.143c-5.857-5.857-15.355-5.857-21.213 0s-5.858 15.355 0 21.213z"/><path d="m361.002 201.147h20c8.284 0 15-6.716 15-15s-6.716-15-15-15h-20c-8.284 0-15 6.716-15 15s6.715 15 15 15z"/></g></svg>