<svg id="Capa_1" enable-background="new 0 0 511.998 511.998" height="512" viewBox="0 0 511.998 511.998" width="512" xmlns="http://www.w3.org/2000/svg"><g><path d="m122.49 374.69c8.284 0 15-6.716 15-15s-6.716-15-15-15h-91.239v-120.755c0-8.284-6.716-15-15-15s-15 6.716-15 15v135.755c0 8.284 6.716 15 15 15h37.494v55.747h-38.745c-8.284 0-15 6.716-15 15s6.716 15 15 15h107.49c8.284 0 15-6.716 15-15s-6.716-15-15-15h-38.745v-55.747z"/><path d="m496.998 430.437h-38.745v-55.747h37.494c8.284 0 15-6.716 15-15v-135.755c0-8.284-6.716-15-15-15s-15 6.716-15 15v120.755h-91.239c-8.284 0-15 6.716-15 15s6.716 15 15 15h38.745v55.747h-38.745c-8.284 0-15 6.716-15 15s6.716 15 15 15h107.49c8.284 0 15-6.716 15-15s-6.716-15-15-15z"/><path d="m309.744 430.437h-38.744v-115.753h161.747c8.284 0 15-6.716 15-15v-30c0-13.564-6.042-25.736-15.564-33.994v-56.006c0-8.284-6.716-15-15-15h-71.181c-24.813 0-45 20.187-45 45 0 5.259.915 10.305 2.58 15h-32.583v-158.123c0-8.284-6.716-15-15-15s-15 6.716-15 15v158.123h-30.003v-45-60c0-8.284-6.716-15-15-15h-71.181c-24.813 0-45 20.187-45 45 0 11.517 4.354 22.032 11.495 30-7.141 7.968-11.495 18.483-11.495 30 0 7.913 2.06 15.351 5.662 21.818-12.732 7.957-21.225 22.093-21.225 38.182v30c0 8.284 6.716 15 15 15h161.748v115.753h-38.746c-8.284 0-15 6.716-15 15s6.716 15 15 15h107.49c8.284 0 15-6.716 15-15s-6.716-15-15-15zm21.258-220.753c0-8.271 6.729-15 15-15h56.181v30h-56.181c-8.271 0-15-6.728-15-15zm-206.187 15c-8.271 0-15-6.729-15-15s6.729-15 15-15h56.181v30zm0-90h56.181v30h-56.181c-8.271 0-15-6.729-15-15s6.729-15 15-15zm-30.564 135c0-8.271 6.729-15 15-15h293.496c8.271 0 15 6.729 15 15v15h-323.496z"/></g></svg>