<svg id="Capa_1" enable-background="new 0 0 512 512" height="512" viewBox="0 0 512 512" width="512" xmlns="http://www.w3.org/2000/svg"><g><path d="m497 481.999h-6.003v-225.012c0-8.284-6.716-15-15-15h-2.502v-45.006c0-8.284-6.716-15-15-15h-124.993c-24.814 0-45 20.187-45 45v15.006h-2.502c-8.284 0-15 6.716-15 15v225.012h-30.005v-225.012c0-8.284-6.716-15-15-15h-2.5v-45.006c0-8.284-6.716-15-15-15h-124.993c-24.813 0-45 20.187-45 45v15.006h-2.5c-8.285 0-15 6.716-15 15v225.012h-6.002c-8.284 0-15 6.716-15 15s6.716 15 15 15h482c8.284 0 15-6.716 15-15s-6.716-15-15-15zm-428.498-255.018c0-8.271 6.729-15 15-15h109.993v30.006h-124.993zm142.493 255.018h-159.994v-210.012h159.994zm107.507-255.018c0-8.271 6.728-15 15-15h109.993v30.006h-124.993zm142.495 255.018h-159.997v-210.012h159.997z"/><path d="m96.002 391.993h69.996c8.284 0 15-6.716 15-15s-6.716-15-15-15h-69.996c-8.285 0-15 6.716-15 15s6.715 15 15 15z"/><path d="m96.002 331.987h69.996c8.284 0 15-6.716 15-15s-6.716-15-15-15h-69.996c-8.285 0-15 6.716-15 15s6.715 15 15 15z"/><path d="m346 391.993h69.997c8.284 0 15-6.716 15-15s-6.716-15-15-15h-69.997c-8.284 0-15 6.716-15 15s6.716 15 15 15z"/><path d="m346 331.987h69.997c8.284 0 15-6.716 15-15s-6.716-15-15-15h-69.997c-8.284 0-15 6.716-15 15s6.716 15 15 15z"/><path d="m241 86.998h30c8.284 0 15-6.716 15-15s-6.716-15-15-15h-30c-8.284 0-15 6.716-15 15s6.716 15 15 15z"/><path d="m80.659 143.013c7.741 2.949 16.407-.936 19.356-8.679l6.981-18.33h48.065l6.901 18.287c2.268 6.007 7.975 9.708 14.036 9.708 1.76 0 3.55-.311 5.294-.97 7.751-2.925 11.663-11.579 8.738-19.33l-42.413-112.392c-.052-.138-.105-.274-.162-.41-2.723-6.62-9.104-10.894-16.261-10.894-.005 0-.012 0-.017 0-7.163.007-13.545 4.295-16.258 10.926-.046.113-.091.227-.135.341l-42.804 112.386c-2.949 7.742.938 16.408 8.679 19.357zm50.481-90.401 12.602 33.392h-25.318z"/><path d="m329.788 136.142c2.622 4.839 7.684 7.852 13.188 7.852h76.045c8.284 0 15-6.716 15-15s-6.716-15-15-15h-48.368l59.165-90.805c3.005-4.611 3.243-10.497.62-15.336-2.622-4.839-7.684-7.852-13.188-7.852h-71.936c-8.284 0-15 6.716-15 15s6.716 15 15 15h44.26l-59.165 90.805c-3.006 4.611-3.244 10.497-.621 15.336z"/><circle cx="131" cy="437" r="15"/><circle cx="381" cy="437" r="15"/></g></svg>