<svg id="Capa_1" enable-background="new 0 0 514.683 514.683" height="512" viewBox="0 0 514.683 514.683" width="512" xmlns="http://www.w3.org/2000/svg"><g><path d="m498.341 0h-482c-8.284 0-15 6.716-15 15v214.108c0 8.284 6.716 15 15 15h51.755l20.602 24.625c2.851 3.407 7.063 5.375 11.505 5.375h.028c4.452-.009 8.67-1.994 11.514-5.419l20.404-24.581h250.322l20.602 24.625c2.851 3.407 7.064 5.375 11.505 5.375h.028c4.452-.009 8.67-1.994 11.514-5.419l20.404-24.581h51.817c8.284 0 15-6.716 15-15v-214.108c0-8.284-6.716-15-15-15zm-15 214.108h-43.86c-4.462 0-8.691 1.986-11.542 5.419l-13.406 16.15-13.549-16.194c-2.851-3.406-7.063-5.375-11.505-5.375h-264.373c-4.462 0-8.691 1.986-11.542 5.419l-13.406 16.15-13.549-16.194c-2.851-3.406-7.064-5.375-11.505-5.375h-43.763v-184.108h452z"/><path d="m76.341 167.021h47.722c8.284 0 15-6.716 15-15s-6.716-15-15-15h-47.722c-8.284 0-15 6.716-15 15 0 8.285 6.716 15 15 15z"/><path d="m76.341 107.016h47.722c8.284 0 15-6.716 15-15s-6.716-15-15-15h-47.722c-8.284 0-15 6.716-15 15s6.716 15 15 15z"/><path d="m390.62 107.016h47.722c8.284 0 15-6.716 15-15s-6.716-15-15-15h-47.722c-8.284 0-15 6.716-15 15s6.715 15 15 15z"/><path d="m390.62 167.021h47.722c8.284 0 15-6.716 15-15s-6.716-15-15-15h-47.722c-8.284 0-15 6.716-15 15 0 8.285 6.715 15 15 15z"/><path d="m182.341 184.102h150c8.284 0 15-6.716 15-15v-94.096c0-8.284-6.716-15-15-15h-45c-11.517 0-22.032 4.354-30 11.495-7.968-7.142-18.483-11.495-30-11.495h-45c-8.284 0-15 6.716-15 15v94.097c0 8.284 6.716 14.999 15 14.999zm90-79.096c0-8.271 6.728-15 15-15h30v64.097h-45zm-75-15h30c8.271 0 15 6.729 15 15v49.097h-45z"/><path d="m144.068 296.941h-127.726c-8.28 0-14.995 6.71-15 14.991-.001 1.952.27 45.91 25.002 76.21v43.059c0 46.032 37.45 83.481 83.482 83.481 46.031 0 83.48-37.449 83.48-83.481v-85.02c.001-27.151-22.088-49.24-49.238-49.24zm19.239 134.26c0 29.49-23.991 53.481-53.48 53.481-29.49 0-53.482-23.991-53.482-53.481v-33.714h106.963v33.714zm0-63.714h-115.036c-9.504-12.546-13.682-28.849-15.507-40.546h111.304c10.608 0 19.239 8.631 19.239 19.24z"/><path d="m498.341 296.941h-127.725c-27.15 0-49.239 22.089-49.239 49.24v85.02c0 46.032 37.449 83.481 83.48 83.481 46.032 0 83.482-37.449 83.482-83.481v-43.059c24.732-30.3 25.003-74.258 25.002-76.21-.005-8.281-6.719-14.991-15-14.991zm-40.002 134.26c0 29.49-23.992 53.481-53.482 53.481-29.489 0-53.48-23.991-53.48-53.481v-33.714h106.963v33.714zm8.07-63.714h-115.033v-21.306c0-10.609 8.631-19.24 19.239-19.24h111.272c-1.845 11.716-6.034 28.048-15.478 40.546z"/></g></svg>