<svg id="Capa_1" enable-background="new 0 0 512.741 512.741" height="512" viewBox="0 0 512.741 512.741" width="512" xmlns="http://www.w3.org/2000/svg"><g><path d="m497.741.372h-334.299c-8.284 0-15 6.716-15 15v115.007h-34.987c-27.15 0-49.239 22.089-49.239 49.24v82.238c0 22.152 8.689 42.301 22.817 57.26v40.643l-47.623 14.319c-22.098 6.644-39.41 29.925-39.41 53.002v70.289c0 8.284 6.716 15 15 15h265.395c8.284 0 15-6.716 15-15v-70.289c0-15.692-8.011-31.475-20.084-42.061h81.418v39.999c0 5.948 3.515 11.335 8.96 13.73 1.941.853 3.996 1.27 6.037 1.27 3.683 0 7.317-1.356 10.139-3.942l55.699-51.057h60.178c8.284 0 15-6.716 15-15v-354.648c-.001-8.285-6.717-15-15.001-15zm-403.525 179.247c0-10.609 8.631-19.24 19.239-19.24h111.112c-1.916 10.844-6.115 25.604-15.277 37.532h-115.074zm0 48.292h106.964v33.946c0 29.49-23.991 53.482-53.482 53.482-29.49 0-53.482-23.991-53.482-53.482zm84.145 111.568v24.047l-30.664 23.587-30.664-23.587v-24.048c9.501 3.767 19.84 5.86 30.665 5.86 10.824 0 21.163-2.092 30.663-5.859zm87.034 142.891h-235.395v-55.289c0-9.863 8.603-21.433 18.048-24.273l50.938-15.315 39.566 30.435c2.696 2.073 5.921 3.11 9.146 3.11s6.449-1.037 9.146-3.11l39.566-30.435 50.936 15.316c9.447 2.84 18.05 14.409 18.05 24.272v55.289zm217.346-127.35h-51.013c-3.753 0-7.369 1.406-10.136 3.942l-34.864 31.958v-20.9c0-8.284-6.716-15-15-15h-163.367v-35.901c14.129-14.96 22.818-35.109 22.818-57.262v-43.277c24.727-30.036 25.001-71.376 25.001-73.211-.006-8.28-6.72-14.99-15-14.99h-62.738v-100.007h304.299z"/><path d="m223.448 100.373h214.293c8.284 0 15-6.716 15-15s-6.716-15-15-15h-214.293c-8.284 0-15 6.716-15 15s6.716 15 15 15z"/><path d="m437.741 130.378h-136.555c-8.284 0-15 6.716-15 15s6.716 15 15 15h136.555c8.284 0 15-6.716 15-15s-6.716-15-15-15z"/><path d="m437.741 190.384h-43.277c-11.518 0-22.032 4.354-30 11.495-7.968-7.142-18.483-11.495-30-11.495h-43.278c-8.284 0-15 6.716-15 15v105.522c0 8.284 6.716 15 15 15h146.556c8.284 0 15-6.716 15-15v-105.522c-.001-8.284-6.717-15-15.001-15zm-88.277 105.523h-43.278v-75.522h28.278c8.271 0 15 6.729 15 15zm73.277 0h-43.277v-60.522c0-8.271 6.729-15 15-15h28.277z"/></g></svg>