<svg id="Capa_1" enable-background="new 0 0 511.998 511.998" height="512" viewBox="0 0 511.998 511.998" width="512" xmlns="http://www.w3.org/2000/svg"><g><path d="m113.542 451.998c8.284 0 15-6.716 15-15v-361.998c0-8.284-6.716-15-15-15s-15 6.716-15 15v361.998c0 8.284 6.716 15 15 15z"/><path d="m485.112 428.256-18.338-164.281c-2.161-19.343-13.907-45.955-26.741-60.587l-44.826-51.105v-77.28c0-24.813-20.187-45-45-45h-149.915v-15.003c0-8.284-6.716-15-15-15h-143.499c-8.284 0-15 6.716-15 15v481.998c0 8.284 6.716 15 15 15h143.498c8.284 0 15-6.716 15-15v-89.151h137.339c7.68 11.842 14.135 21.535 17.564 26.65v62.501c0 8.284 6.716 15 15 15h100.01c8.284 0 15-6.716 15-15v-67.078c.001-.556-.03-1.111-.092-1.664zm-314.82 53.742h-113.499v-451.998h113.498v451.998zm30-361.995h104.915v30.005l-104.915.001zm0 60.006 119.915-.001c8.284 0 15-6.716 15-15v-60.005c0-8.284-6.716-15-15-15h-119.915v-30h149.915c8.271 0 15 6.729 15 15l-.01 191.778-6.361-6.361c-8.5-8.499-19.8-13.18-31.819-13.18s-23.319 4.681-31.82 13.181c-13.996 13.997-17.502 35.67-9.568 57.426h-85.337zm0 197.838v-30h100.366c5.402 9.505 11.619 19.832 17.921 30zm254.913 104.151h-70.01v-52.078c0-2.997-.898-5.926-2.578-8.407-.54-.797-54.082-80.036-67.718-111.233-3.807-8.71-5.695-21.438 1.511-28.645 2.834-2.834 6.6-4.395 10.607-4.395 4.006 0 7.773 1.561 10.606 4.394l31.967 31.966c4.29 4.29 10.741 5.572 16.347 3.252 5.605-2.322 9.26-7.791 9.26-13.858v-105.227l22.283 25.404c8.881 10.125 17.984 30.749 19.479 44.134l18.245 163.45v51.243z"/></g></svg>