<svg id="Capa_1" enable-background="new 0 0 511.999 511.999" height="512" viewBox="0 0 511.999 511.999" width="512" xmlns="http://www.w3.org/2000/svg"><g><path d="m469.796 394.694c4.435-28.206-4.69-57.414-25.328-78.051l-12.85-12.851c4.151-15.237 6.38-31.259 6.38-47.793s-2.229-32.556-6.381-47.793l12.851-12.851c20.637-20.637 29.762-49.845 25.328-78.051 24.422-7.601 42.203-30.415 42.203-57.305 0-33.084-26.916-60-60-60-26.89 0-49.705 17.781-57.305 42.203-28.206-4.435-57.415 4.689-78.052 25.327l-12.852 12.853c-15.236-4.15-31.257-6.38-47.791-6.38s-32.555 2.229-47.791 6.38l-12.852-12.852c-20.638-20.637-49.847-29.762-78.052-25.328-7.599-24.42-30.414-42.201-57.304-42.201-33.084 0-60 26.916-60 60 0 26.89 17.781 49.704 42.203 57.305-4.434 28.206 4.691 57.414 25.328 78.051l12.851 12.851c-4.151 15.237-6.381 31.259-6.381 47.793s2.229 32.556 6.38 47.793l-12.851 12.849c-20.637 20.637-29.762 49.845-25.328 78.051-24.421 7.6-42.202 30.415-42.202 57.305 0 33.084 26.916 60 60 60 26.893 0 49.709-17.785 57.307-42.21 4.666.733 9.357 1.117 14.035 1.117 23.597 0 46.793-9.215 64.015-26.438l12.851-12.851c15.237 4.15 31.258 6.38 47.792 6.38s32.555-2.229 47.792-6.38l12.851 12.851c17.224 17.224 40.416 26.438 64.015 26.438 4.677 0 9.369-.385 14.035-1.118 7.598 24.426 30.414 42.211 57.307 42.211 33.084 0 60-26.916 60-60-.001-26.89-17.782-49.705-42.204-57.305zm-17.797-364.694c16.542 0 30 13.458 30 30s-13.458 30-30 30-30-13.458-30-30 13.458-30 30-30zm-114.144 58.744c14.591-14.591 35.602-20.577 55.447-16.313 4.892 23.126 23.141 41.375 46.267 46.268 4.263 19.844-1.722 40.854-16.313 55.445l-3.165 3.165c-17.929-37.234-48.165-67.471-85.401-85.398zm-277.469 1.247c-.076.003-.152.002-.228.006-.053 0-.105.004-.158.004-16.542 0-30-13.458-30-30s13.458-30 30-30 30 13.458 30 30c0 .043-.003.085-.003.127-.005.108-.005.215-.008.322-.241 16.206-13.389 29.335-29.603 29.541zm12.044 28.707c23.126-4.893 41.374-23.141 46.267-46.267 19.847-4.262 40.856 1.723 55.447 16.313l3.166 3.166c-37.235 17.928-67.472 48.164-85.401 85.398l-3.165-3.165c-14.592-14.592-20.576-35.601-16.314-55.445zm-12.43 363.301c-16.542 0-30-13.458-30-30s13.458-30 30-30 30 13.458 30 30-13.458 30-30 30zm114.144-58.744c-14.591 14.591-35.602 20.576-55.447 16.313-4.892-23.126-23.141-41.375-46.267-46.267-4.263-19.844 1.722-40.854 16.313-55.445l3.165-3.165c17.929 37.234 48.165 67.471 85.401 85.399zm81.855-15.258c-83.813 0-151.999-68.186-151.999-151.998s68.186-151.997 151.999-151.997 151.999 68.186 151.999 151.997-68.186 151.998-151.999 151.998zm137.303 31.572c-19.844 4.263-40.855-1.723-55.447-16.313l-3.165-3.165c37.235-17.929 67.472-48.165 85.401-85.399l3.165 3.165c14.591 14.592 20.576 35.602 16.313 55.445-23.126 4.892-41.375 23.141-46.267 46.267zm58.697 42.43c-16.542 0-30-13.458-30-30 0-.042.003-.084.003-.126.005-.108.005-.217.008-.324.243-16.335 13.598-29.55 29.989-29.55 16.542 0 30 13.458 30 30s-13.458 30-30 30z"/><path d="m331 188.917h-45c-11.517 0-22.032 4.354-30 11.495-7.968-7.142-18.483-11.495-30-11.495h-45c-8.284 0-15 6.716-15 15v104.164c0 8.284 6.716 15 15 15h150c8.284 0 15-6.716 15-15v-104.164c0-8.284-6.716-15-15-15zm-90.001 104.165h-45v-74.164h30c8.271 0 15 6.729 15 15zm75.001 0h-45v-59.164c0-8.271 6.729-15 15-15h30z"/></g></svg>