<svg id="Capa_1" enable-background="new 0 0 511.998 511.998" height="512" viewBox="0 0 511.998 511.998" width="512" xmlns="http://www.w3.org/2000/svg"><g><path d="m476.997 301.992h-206v-41.981h150.012c8.284 0 15-6.716 15-15s-6.716-15-15-15h-15.009v-200.01c0-8.284-6.716-15-15-15h-90c-8.284 0-15 6.716-15 15v15.002h-60.009v-30.003c0-8.284-6.716-15-15-15h-90c-8.284 0-15 6.716-15 15v215.011h-45.002c-8.284 0-15 6.716-15 15s6.716 15 15 15h180.008v41.981h-205.997c-8.284 0-15 6.716-15 15v150.003c0 3.979 1.58 7.793 4.393 10.606l30.002 30.003c2.813 2.813 6.628 4.393 10.607 4.393h381.993c3.979 0 7.794-1.58 10.607-4.393l30.003-30.003c2.814-2.813 4.393-6.628 4.393-10.606v-150.003c-.001-8.284-6.716-15-15.001-15zm-160.997-256.991h60v30.006h-60zm0 60.006h60v64.998h-60zm0 94.998h60v30.006h-60zm-120.008 30.006h-60v-18.475c8.225-7.376 18.896-11.531 30.002-11.531 11.104 0 21.774 4.154 29.998 11.528zm0-53.697c-9.368-4.105-19.563-6.31-29.998-6.31-10.437 0-20.633 2.206-30.002 6.311v-89.288c9.369 4.104 19.565 6.311 30.002 6.311 10.435 0 20.63-2.205 29.998-6.31zm0-124.504c-8.224 7.374-18.894 11.528-29.998 11.528-11.106 0-21.777-4.155-30.002-11.531v-21.807h60zm30 23.193h60.008v101.982l-21.688-14.461c-5.038-3.358-11.603-3.36-16.643 0l-21.678 14.453v-101.974zm0 155.008v-16.977l29.999-20.002 30.009 20.009v16.97zm236.005 230.771-21.216 21.216h-369.566l-21.215-21.216v-128.79h411.997z"/><path d="m170.005 436.998c0 8.284 6.716 15 15 15h141.984c8.284 0 15-6.716 15-15s-6.716-15-15-15h-141.984c-8.284 0-15 6.716-15 15z"/><path d="m95.001 391.992h10.99c8.284 0 15-6.716 15-15s-6.716-15-15-15h-10.99c-8.284 0-15 6.716-15 15s6.715 15 15 15z"/><path d="m406.011 391.992h10.986c8.284 0 15-6.716 15-15s-6.716-15-15-15h-10.986c-8.284 0-15 6.716-15 15s6.716 15 15 15z"/><path d="m386.995 451.998h30.003c8.284 0 15-6.716 15-15s-6.716-15-15-15h-30.003c-8.284 0-15 6.716-15 15s6.715 15 15 15z"/><path d="m95.001 451.998h30.001c8.284 0 15-6.716 15-15s-6.716-15-15-15h-30.001c-8.284 0-15 6.716-15 15s6.715 15 15 15z"/><circle cx="165.989" cy="376.992" r="15"/><circle cx="225.999" cy="376.992" r="15"/><circle cx="286.009" cy="376.992" r="15"/><circle cx="346.019" cy="376.992" r="15"/></g></svg>